<svg aria-hidden="true" style="position:absolute;width:0;height:0;overflow:hidden" xmlns="http://www.w3.org/2000/svg"><defs><symbol id="icon-companytagline" viewBox="0 0 64 64"><path fill="#afb1b8" style="fill:var(--color1, #afb1b8)" d="M32.289 31.257a2.007 2.007 0 0 1-.412-1.354V27.94c0-.602.136-1.059.409-1.372s.742-.469 1.406-.467c.625 0 1.068.133 1.33.399.286.34.425.755.393 1.174v.461h-1.117v-.467a2.412 2.412 0 0 0-.032-.457.441.441 0 0 0-.16-.272.646.646 0 0 0-.405-.106.684.684 0 0 0-.426.112.525.525 0 0 0-.185.299c-.032.16-.047.323-.044.485v2.382c-.018.23.032.46.143.669.056.071.133.127.223.162s.19.048.288.038a.609.609 0 0 0 .395-.108.48.48 0 0 0 .167-.29c.026-.158.038-.318.035-.477v-.483h1.117v.441c.031.437-.104.87-.386 1.234-.257.292-.694.437-1.337.437s-1.129-.156-1.404-.479zM36.941 31.277c-.282-.306-.423-.751-.423-1.34v-2.065c0-.583.141-1.024.423-1.324s.754-.449 1.416-.447c.657 0 1.126.149 1.409.447.282.3.426.741.426 1.324v2.065c0 .583-.143 1.03-.43 1.338s-.754.461-1.404.461c-.65 0-1.131-.156-1.416-.459zm1.936-.496c.101-.191.147-.401.134-.611v-2.528a1.117 1.117 0 0 0-.132-.599c-.057-.072-.136-.129-.228-.165s-.194-.047-.295-.035c-.1-.012-.203 0-.295.035s-.172.092-.23.164a1.092 1.092 0 0 0-.134.599v2.54c-.014.21.032.42.134.611.065.064.145.116.236.151a.8.8 0 0 0 .574 0 .713.713 0 0 0 .236-.151v-.012zM41.534 26.161h1.203l.904 3.81.925-3.81h1.17l.118 5.499h-.865l-.093-3.822-.893 3.822h-.694l-.925-3.836-.086 3.836h-.874l.109-5.499zM47.204 26.161h1.873c1.079 0 1.619.52 1.619 1.561 0 .997-.568 1.495-1.705 1.494h-.638v2.444h-1.157l.007-5.499zm1.6 2.35c.114.012.23.003.34-.027s.211-.08.296-.147a.893.893 0 0 0 .167-.621 1.72 1.72 0 0 0-.056-.499c-.017-.055-.045-.106-.085-.151s-.089-.082-.146-.111a1.204 1.204 0 0 0-.516-.088h-.449v1.643h.449zM52.364 26.161h1.242l1.274 5.499h-1.078l-.252-1.268h-1.108l-.259 1.268h-1.094l1.274-5.499zm1.061 3.594-.433-2.308-.432 2.308h.865zM55.91 26.161h.81l1.55 3.137v-3.137h.96v5.499h-.77l-1.559-3.275v3.275h-.992l.002-5.499zM61.477 29.563l-1.288-3.395h1.085l.786 2.181.738-2.181h1.062l-1.272 3.395v2.097h-1.11v-2.097zM34.075 34.064v.288h-.944v2.234h-.396v-2.234h-.948v-.288h2.288zM37.033 36.586h-.305a.135.135 0 0 1-.086-.024.135.135 0 0 1-.051-.058l-.273-.599h-1.309l-.273.599a.168.168 0 0 1-.042.068.142.142 0 0 1-.086.024h-.305l1.157-2.522h.403l1.17 2.512zm-1.915-.936h1.092l-.463-1.026a1.88 1.88 0 0 1-.086-.238l-.044.134-.042.106-.458 1.024zM39.027 36.339c.072.003.145.003.217 0 .063-.006.124-.016.185-.03.057-.012.112-.027.167-.046.051-.018.102-.04.155-.062v-.567h-.463c-.011.001-.023-.001-.034-.004s-.021-.009-.029-.016c-.008-.006-.014-.013-.018-.021s-.006-.017-.005-.025v-.194h.897v.967a1.685 1.685 0 0 1-.488.206 2.16 2.16 0 0 1-.289.052 3.46 3.46 0 0 1-.338.016c-.2.002-.397-.03-.583-.094a1.421 1.421 0 0 1-.463-.264 1.217 1.217 0 0 1-.298-.399 1.252 1.252 0 0 1-.106-.523c-.002-.18.033-.358.104-.527.066-.149.168-.285.298-.399.132-.114.289-.203.463-.262.198-.064.408-.096.62-.094.108 0 .215.007.322.022.094.013.186.035.275.064.081.026.158.06.231.1.071.039.138.084.201.132l-.111.156a.107.107 0 0 1-.091.048.162.162 0 0 1-.072-.02 1.28 1.28 0 0 1-.113-.06 1.025 1.025 0 0 0-.155-.068 1.39 1.39 0 0 0-.507-.078 1.339 1.339 0 0 0-.446.07.98.98 0 0 0-.34.2.873.873 0 0 0-.215.314 1.183 1.183 0 0 0 0 .841.98.98 0 0 0 .569.518c.147.044.303.061.458.05zM42.714 36.299h1.263v.288h-1.649v-2.522h.395l-.009 2.235zM45.291 36.586h-.396v-2.522h.396v2.522zM46.762 34.076a.196.196 0 0 1 .06.046l1.691 1.901a.676.676 0 0 1 0-.09v-1.879h.345v2.532h-.199a.195.195 0 0 1-.086-.014.25.25 0 0 1-.063-.048l-1.688-1.899V36.586h-.331v-2.522h.206c.022 0 .044.004.065.012zM51.769 34.064v.278h-1.402v.833h1.136v.268h-1.136v.861h1.402v.278H49.96v-2.516h1.809zM10.323 18.489l17.563 4.305V37.88l-17.563-4.303V18.489zm-1.127-1.286V34.31l19.813 4.858V22.063l-19.813-4.86z"/><path fill="#afb1b8" style="fill:var(--color1, #afb1b8)" d="M19.815 47.11 0 42.248V25.143l19.815 4.86V47.11zM9.525 18.295l17.334 4.251-7.372 6.366-17.336-4.253 7.374-6.364zm-.329-1.092L0 25.142l19.815 4.86 9.194-7.939-19.813-4.86zM20.93 46.147l8.079-6.977-8.079-1.983v8.96z"/></symbol><symbol id="icon-brand" viewBox="0 0 64 64"><path fill="#afb1b8" style="fill:var(--color1, #afb1b8)" d="M4.832 47.477c.248.281.379.632.372.992.013.235-.033.47-.133.687s-.252.411-.445.567a2.668 2.668 0 0 1-1.678.458h-2.95v-6.29h2.889a2.634 2.634 0 0 1 1.601.418c.187.143.334.324.432.528s.141.426.129.649c.017.347-.102.688-.336.962-.224.25-.534.423-.879.492.391.065.745.256.997.538zm-3.459-.949h1.235c.281.019.559-.055.785-.209.093-.077.165-.172.211-.279s.065-.221.054-.336c.009-.114-.01-.228-.055-.334s-.116-.202-.206-.28a1.28 1.28 0 0 0-.809-.212H1.373v1.65zm2.141 2.412c.099-.079.177-.178.228-.288s.073-.231.064-.351c.008-.121-.015-.243-.067-.354s-.131-.211-.231-.291a1.355 1.355 0 0 0-.839-.227H1.374v1.73h1.312c.295.016.588-.061.829-.218zM10.739 50.181l-1.607-2.458h-.604v2.458H7.145v-6.29h2.618a2.739 2.739 0 0 1 1.822.535c.366.341.587.791.622 1.268s-.116.95-.428 1.334a2.177 2.177 0 0 1-1.248.639l1.711 2.513h-1.503zm-2.212-3.315h1.131c.785 0 1.178-.317 1.178-.953.008-.13-.014-.259-.063-.381s-.127-.233-.225-.326a1.3 1.3 0 0 0-.889-.255H8.515l.013 1.914zM18.296 48.915h-2.755l-.487 1.266h-1.45l2.53-6.219h1.567l2.52 6.219h-1.45l-.477-1.266zm-.369-.953-1.007-2.655-1.007 2.655h2.013zM27.756 50.181h-1.373l-3.077-4.277v4.277h-1.369v-6.29h1.369l3.077 4.302v-4.302h1.373v6.29zM35.589 48.675a2.858 2.858 0 0 1-1.242 1.109 4.362 4.362 0 0 1-1.93.396h-2.443v-6.29h2.443a4.451 4.451 0 0 1 1.93.387 2.82 2.82 0 0 1 1.242 1.097c.282.512.43 1.077.43 1.65s-.147 1.139-.43 1.65zm-1.571-.15c.392-.418.607-.95.607-1.501s-.215-1.083-.607-1.501a2.526 2.526 0 0 0-1.718-.535h-.953v4.071h.953a2.524 2.524 0 0 0 1.718-.535zM19.155 8.906s17.716 6.124 17.34 14.985v14.988s-17.702-6.127-17.333-14.988l-.007-14.985zM52.277 35.371c3.346-2.108 7.216-3.414 11.255-3.798v-4.692c-4.655 1.643-8.603 4.621-11.255 8.49z"/><path fill="#afb1b8" style="fill:var(--color1, #afb1b8)" d="M50.267 36.784c2.739-5.049 7.486-8.945 13.266-10.886v-13.52s-25.229 8.723-24.696 21.343v21.34s1.124-.39 2.893-1.121c0-.682 0-1.37.081-2.062.522-5.859 3.564-11.287 8.457-15.093z"/><path fill="#afb1b8" style="fill:var(--color1, #afb1b8)" d="M47.868 44.712c.133-1.48.428-2.944.883-4.369-3.047 3.286-4.892 7.364-5.275 11.661-.037.406-.057.811-.067 1.229a76.181 76.181 0 0 0 4.852-2.341 20.28 20.28 0 0 1-.393-6.179zM48.871 44.788a19.357 19.357 0 0 0 .312 5.595c6.893-3.776 14.638-9.611 14.339-16.663v-.614c-4.925.505-9.532 2.476-13.115 5.611a19.551 19.551 0 0 0-1.537 6.072z"/></symbol><symbol id="icon-fosterpeters" viewBox="0 0 64 64"><path fill="#afb1b8" style="fill:var(--color2, #afb1b8)" d="M9.898 26.054h-.002c-1.806 0-3.269 1.301-3.269 2.905v.002c0 1.605 1.464 2.905 3.269 2.905h.002c1.806 0 3.269-1.301 3.269-2.905v-.002c0-1.605-1.464-2.905-3.269-2.905zM34.029 25.125c-.005-2.229-1.003-4.365-2.777-5.941s-4.177-2.464-6.684-2.469c-2.509.004-4.913.891-6.687 2.468s-2.773 3.713-2.778 5.942v12.29s18.924-1.873 18.926-12.288v-.002zM0 41.449c.005 1.551.7 3.037 1.933 4.134s2.906 1.715 4.651 1.719c1.745-.005 3.416-.623 4.65-1.719s1.929-2.582 1.934-4.132v-8.552S0 34.203 0 41.449zm6.584 1.532c-.341 0-.674-.09-.958-.258s-.505-.408-.635-.688c-.13-.28-.165-.588-.098-.885s.231-.57.472-.785.548-.36.883-.419c.334-.059.681-.029.996.087s.584.312.774.564c.189.252.291.548.291.851.001.202-.043.402-.129.588s-.213.356-.373.499c-.16.143-.351.256-.56.334s-.434.117-.661.117v-.006zM19.891 42.137H18.62v1.313h-.662v-3.212h2.091v.536H18.62v.829h1.271v.534zm3.181-.22c0 .316-.056.593-.168.832s-.272.422-.481.551a1.326 1.326 0 0 1-.715.194 1.275 1.275 0 0 1-1.197-.739 1.88 1.88 0 0 1-.174-.821v-.159c0-.316.057-.594.17-.834a1.28 1.28 0 0 1 .483-.554c.209-.129.447-.194.715-.194s.505.065.712.194c.209.128.37.313.483.554.115.24.172.517.172.832v.143zm-.671-.146c0-.337-.06-.593-.181-.768s-.293-.263-.516-.263a.59.59 0 0 0-.514.26c-.121.172-.182.425-.183.759v.157c0 .328.06.582.181.763s.294.271.521.271a.585.585 0 0 0 .512-.26c.119-.175.179-.429.181-.763v-.157zm2.817.836a.337.337 0 0 0-.132-.287c-.088-.068-.247-.138-.476-.212a3.463 3.463 0 0 1-.545-.221c-.365-.197-.547-.463-.547-.796 0-.174.049-.328.146-.463a.968.968 0 0 1 .421-.32c.184-.076.39-.115.618-.115.229 0 .434.042.613.126a.962.962 0 0 1 .417.351c.1.151.15.324.15.516h-.662a.429.429 0 0 0-.139-.342c-.093-.082-.223-.123-.39-.123-.162 0-.288.035-.377.104a.32.32 0 0 0-.135.269c0 .104.052.192.157.263a1.8 1.8 0 0 0 .465.199c.377.113.651.254.823.421s.258.377.258.626a.774.774 0 0 1-.316.655c-.21.157-.493.236-.849.236-.247 0-.472-.045-.675-.135a1.074 1.074 0 0 1-.465-.373.956.956 0 0 1-.159-.547h.664c0 .354.212.532.635.532.157 0 .28-.032.368-.095a.315.315 0 0 0 .132-.269zm3.532-1.833h-.984v2.676h-.662v-2.676h-.971v-.536h2.616v.536zm2.312 1.284h-1.271v.86h1.491v.532h-2.153v-3.212h2.148v.536H29.79v.765h1.271v.518zm1.797.216h-.527v1.176h-.662v-3.212h1.193c.379 0 .672.085.878.254s.309.408.309.717a.992.992 0 0 1-.143.549.963.963 0 0 1-.43.349l.695 1.313v.031h-.71l-.602-1.176zm-.527-.536h.534c.166 0 .295-.042.386-.126a.457.457 0 0 0 .137-.351.48.48 0 0 0-.13-.357c-.085-.087-.217-.13-.395-.13h-.532v.964zm4.01.58v1.132h-.662v-3.212h1.253c.241 0 .453.044.635.132a.966.966 0 0 1 .423.377c.099.162.148.346.148.554 0 .315-.108.563-.324.746-.215.181-.513.271-.893.271h-.58zm0-.536h.591c.175 0 .308-.041.399-.124.093-.082.139-.2.139-.353 0-.157-.046-.285-.139-.382s-.221-.147-.384-.15h-.607v1.008zm4.187.276h-1.271v.86h1.491v.532h-2.153v-3.212h2.148v.536h-1.487v.765h1.271v.518zm3.071-1.284h-.984v2.676h-.662v-2.676h-.971v-.536h2.616v.536zm2.312 1.284h-1.271v.86h1.491v.532h-2.153v-3.212h2.148v.536H44.64v.765h1.271v.518zm1.797.216h-.527v1.176h-.662v-3.212h1.193c.379 0 .672.085.878.254s.309.408.309.717a.992.992 0 0 1-.143.549.968.968 0 0 1-.43.349l.695 1.313v.031h-.71l-.602-1.176zm-.527-.536h.534c.166 0 .295-.042.386-.126a.457.457 0 0 0 .137-.351.48.48 0 0 0-.13-.357c-.085-.087-.217-.13-.395-.13h-.532v.964zm3.889.869a.337.337 0 0 0-.132-.287c-.088-.068-.247-.138-.476-.212a3.463 3.463 0 0 1-.545-.221c-.365-.197-.547-.463-.547-.796 0-.174.049-.328.146-.463a.968.968 0 0 1 .421-.32c.184-.076.39-.115.618-.115.229 0 .434.042.613.126a.962.962 0 0 1 .417.351c.1.151.15.324.15.516h-.662a.429.429 0 0 0-.139-.342c-.093-.082-.223-.123-.391-.123-.162 0-.288.035-.377.104a.32.32 0 0 0-.135.269c0 .104.052.192.157.263a1.8 1.8 0 0 0 .465.199c.377.113.651.254.823.421s.258.377.258.626a.776.776 0 0 1-.315.655c-.21.157-.493.236-.849.236-.247 0-.472-.045-.675-.135a1.074 1.074 0 0 1-.465-.373.956.956 0 0 1-.159-.547h.664c0 .354.212.532.635.532.157 0 .28-.032.368-.095a.315.315 0 0 0 .132-.269z"/></symbol><symbol id="icon-company" viewBox="0 0 64 64"><path fill="#afb1b8" style="fill:var(--color1, #afb1b8)" d="M10.533 60.589a.182.182 0 0 1 .121.047l.31.297c-.241.24-.538.432-.872.563a3.38 3.38 0 0 1-1.237.202 3.282 3.282 0 0 1-1.163-.189 2.547 2.547 0 0 1-.876-.532 2.387 2.387 0 0 1-.566-.822 2.745 2.745 0 0 1-.198-1.055c-.005-.361.067-.72.213-1.058.135-.306.34-.586.601-.822.265-.232.582-.414.931-.536a3.642 3.642 0 0 1 1.198-.189c.38-.008.759.05 1.113.172.307.116.589.276.834.475l-.26.317a.243.243 0 0 1-.066.057.181.181 0 0 1-.105.024.24.24 0 0 1-.112-.034l-.14-.084-.194-.108a2.168 2.168 0 0 0-.613-.188 2.736 2.736 0 0 0-.461-.034 2.502 2.502 0 0 0-.861.142 1.962 1.962 0 0 0-.675.398 1.84 1.84 0 0 0-.438.634 2.135 2.135 0 0 0-.159.836c-.005.289.049.576.159.849.095.232.241.447.43.63.178.171.398.305.644.391.253.091.525.137.799.135.158.002.316-.007.473-.027.256-.027.501-.104.717-.226.108-.062.211-.132.306-.209a.245.245 0 0 1 .147-.054zM19.491 59.099c.005.358-.066.713-.209 1.048-.126.304-.325.581-.584.813s-.571.414-.916.534a3.772 3.772 0 0 1-2.358 0 2.716 2.716 0 0 1-.911-.536 2.368 2.368 0 0 1-.589-.822 2.737 2.737 0 0 1 0-2.099c.132-.306.333-.587.589-.826.26-.224.57-.4.911-.515a3.716 3.716 0 0 1 2.358 0c.344.122.656.304.915.536.255.234.454.51.585.812.144.337.215.695.209 1.055zm-.815 0a2.235 2.235 0 0 0-.147-.842 1.73 1.73 0 0 0-.415-.63 1.857 1.857 0 0 0-.655-.398 2.73 2.73 0 0 0-1.714 0c-.25.089-.474.224-.655.398a1.707 1.707 0 0 0-.419.63 2.476 2.476 0 0 0 0 1.685c.087.233.23.448.419.63.182.172.406.307.655.394a2.803 2.803 0 0 0 1.714 0c.249-.087.473-.222.655-.394.186-.183.327-.398.415-.63a2.2 2.2 0 0 0 .147-.842zM25.602 59.982l.081.189c.031-.067.058-.128.089-.189.03-.063.063-.125.101-.185l1.981-3.13c.039-.054.074-.087.113-.098a.526.526 0 0 1 .163-.017h.585v5.09h-.694v-3.901a1.278 1.278 0 0 1 0-.175l-1.993 3.174c-.025.047-.066.088-.117.116s-.11.043-.17.042h-.113c-.06.001-.12-.014-.171-.042s-.091-.069-.116-.116l-2.051-3.194v4.087h-.671v-5.08h.585a.526.526 0 0 1 .163.017.218.218 0 0 1 .109.098l2.024 3.133c.04.058.073.119.101.182zM33.059 59.729v1.907h-.776v-5.084h1.729c.326-.005.652.032.966.111.251.062.484.17.682.317.172.138.305.308.388.499.091.207.136.428.132.65a1.45 1.45 0 0 1-.144.65 1.406 1.406 0 0 1-.419.509 1.981 1.981 0 0 1-.686.337 3.264 3.264 0 0 1-.935.118l-.938-.013zm0-.546h.938c.204.002.407-.024.601-.077.16-.047.308-.121.434-.219a.97.97 0 0 0 .357-.765c.009-.141-.017-.283-.078-.414s-.153-.25-.271-.347a1.668 1.668 0 0 0-1.043-.273h-.938v2.095zM43.482 61.642h-.613a.293.293 0 0 1-.17-.047.316.316 0 0 1-.101-.118l-.527-1.23h-2.648l-.547 1.23a.288.288 0 0 1-.272.165h-.613l2.327-5.091h.807l2.358 5.091zm-3.839-1.89h2.187l-.923-2.072a3.262 3.262 0 0 1-.174-.478l-.089.266a2.445 2.445 0 0 1-.085.216l-.915 2.069zM46.832 56.575a.327.327 0 0 1 .116.091l3.393 3.838v-3.952h.694v5.091h-.388a.388.388 0 0 1-.159-.03.415.415 0 0 1-.124-.094l-3.389-3.834c.004.058.004.117 0 .175v3.784h-.694v-5.091h.411a.36.36 0 0 1 .139.024zM56.751 59.618v2.022h-.776v-2.022l-2.144-3.066h.694a.276.276 0 0 1 .167.044.457.457 0 0 1 .105.115l1.342 1.978c.054.084.101.162.14.236s.07.145.097.216l.101-.219c.038-.08.082-.158.132-.232l1.322-1.991a.542.542 0 0 1 .101-.108.256.256 0 0 1 .167-.05h.702l-2.148 3.079zM25.218 48.009c.337.037.679.067 1.024.094 5.232-2.034 9.658-5.362 12.725-9.569s4.639-9.107 4.519-14.085l-5.766-5.01c1.172 5.301.624 10.781-1.584 15.827s-5.988 9.458-10.918 12.743z"/><path fill="#afb1b8" style="fill:var(--color1, #afb1b8)" d="m23.159 47.776.155.027c5.268-3.274 9.284-7.845 11.529-13.123s2.616-11.02 1.065-16.484l-8.213-7.136c3.322 5.865 4.659 12.429 3.856 18.929s-3.713 12.667-8.393 17.786zM51.012 30.331c-1.395 5.471-4.784 10.405-9.663 14.069a30.795 30.795 0 0 1-4.591 2.864c3.973-1.015 7.625-2.808 10.674-5.243s5.414-5.445 6.912-8.799l-3.331-2.891z"/><path fill="#afb1b8" style="fill:var(--color1, #afb1b8)" d="m49.705 29.526-4.742-4.12c-.091 4.698-1.628 9.289-4.452 13.296s-6.831 7.284-11.606 9.489h.023a30.73 30.73 0 0 0 3.183-.165c4.462-1.582 8.404-4.1 11.474-7.328s5.172-7.066 6.119-11.172zM23.845 8.051l-5.657-4.922c-5.058 1.698-9.407 4.683-12.48 8.565S.983 20.173.967 24.884c.019 5.206 2.035 10.257 5.731 14.354s8.857 7.008 14.67 8.269c5.189-5.493 8.227-12.28 8.672-19.375s-1.724-14.13-6.195-20.08zM62.777 28.768c-.02-6.176-2.853-12.094-7.88-16.461S43.059 5.479 35.951 5.461a30.135 30.135 0 0 0-9.605 1.553L60.985 37.11a20.412 20.412 0 0 0 1.791-8.342z"/></symbol><symbol id="icon-tagline" viewBox="0 0 64 64"><path fill="#afb1b8" style="fill:var(--color1, #afb1b8)" d="M28.448 3.612h-.168c-.258-.016-.517-.022-.775-.028h-.56c-.489 0-.987.013-1.482.038a.698.698 0 0 0-.112 0 34.794 34.794 0 0 0-12.943 3.302l-.532.257v27.251l1.245-.422a47.12 47.12 0 0 1 3.462-1.027 42.25 42.25 0 0 1 9.963-1.324v3.58a29.65 29.65 0 0 0-1.311.038h-.103a39.83 39.83 0 0 0-7.666 1.177 38.91 38.91 0 0 0-9.132 3.559V5.063a36.617 36.617 0 0 1 9.58-3.897A36.63 36.63 0 0 1 26.943.002h.526a36.16 36.16 0 0 1 1.818.088 25.93 25.93 0 0 1 4.499.717v3.524a27.786 27.786 0 0 0-4.448-.665 10.737 10.737 0 0 0-.891-.052zm6.202 3.602c.781.059 1.591.088 2.41.088a38.733 38.733 0 0 0 9.493-1.218 39.088 39.088 0 0 0 9.129-3.562v34.327a36.706 36.706 0 0 1-9.583 3.897 36.825 36.825 0 0 1-9.029 1.161 27.596 27.596 0 0 1-6.85-.807V6.551c.529.122 1.074.235 1.628.329.909.153 1.868.266 2.802.335zm17.47.266-1.245.419a55.097 55.097 0 0 1-3.462 1.036 42.142 42.142 0 0 1-10.346 1.327c-.813 0-1.56-.022-2.282-.069l-.993-.066V38.16l.853.075c.791.069 1.607.103 2.429.103a33.093 33.093 0 0 0 8.148-1.055 34.152 34.152 0 0 0 6.367-2.288l.532-.257V7.478zM10.753 51.954a1.824 1.824 0 0 0-1.386-.56 2.05 2.05 0 0 0-.8.15 1.793 1.793 0 0 0-1.025 1.036 2.024 2.024 0 0 0-.143.773v4.67c-.011.329.052.656.184.958.11.239.269.453.467.626.187.157.406.27.641.332.227.064.462.096.697.097.26.003.517-.053.754-.163.233-.102.445-.249.623-.432.173-.181.312-.394.408-.626.1-.235.151-.489.149-.745v-.523h-1.22v.416c.004.142-.021.284-.072.416a.748.748 0 0 1-.178.263.88.88 0 0 1-.51.179.617.617 0 0 1-.573-.251 1.112 1.112 0 0 1-.162-.626V53.59a1.492 1.492 0 0 1 .149-.698.619.619 0 0 1 .598-.282.644.644 0 0 1 .545.263c.137.179.208.4.202.626v.404h1.208v-.476a2.215 2.215 0 0 0-.149-.817 1.916 1.916 0 0 0-.408-.657zM18.005 51.9a2.169 2.169 0 0 0-1.389-.513 2.16 2.16 0 0 0-.729.131 1.916 1.916 0 0 0-1.118 1.036 2.161 2.161 0 0 0-.177.904v4.479a2.17 2.17 0 0 0 .177.917c.11.241.272.454.473.626.187.173.406.307.645.394.233.086.48.13.729.131.249-.001.495-.045.729-.131.243-.088.467-.222.66-.394a1.91 1.91 0 0 0 .461-.626c.125-.289.186-.602.177-.917v-4.479a2.19 2.19 0 0 0-.177-.904 2.018 2.018 0 0 0-.461-.654zm-.57 6.038a.797.797 0 0 1-.243.648.893.893 0 0 1-1.148 0 .805.805 0 0 1-.243-.648v-4.479a.797.797 0 0 1 .243-.648.893.893 0 0 1 1.148 0 .805.805 0 0 1 .243.648v4.479zM27.529 59.938V51.46h-1.174l-1.541 4.488h-.022l-1.554-4.488h-1.161v8.478h1.211V54.78h.022l1.186 3.646h.604l1.196-3.646h.022v5.158h1.211zM34.41 52.054a1.689 1.689 0 0 0-.685-.463 2.668 2.668 0 0 0-.878-.131h-1.8v8.478h1.208v-3.311h.623c.377.017.752-.063 1.09-.232.275-.153.504-.376.663-.648a2.02 2.02 0 0 0 .277-.739 6.1 6.1 0 0 0 .065-.964 4.834 4.834 0 0 0-.118-1.211 1.81 1.81 0 0 0-.445-.779zm-.623 2.585a1.055 1.055 0 0 1-.112.441.678.678 0 0 1-.311.297c-.179.08-.374.117-.57.106h-.551v-2.882h.623c.188-.009.374.027.545.106a.682.682 0 0 1 .283.313c.066.149.102.31.106.473v.563c0 .197.012.401 0 .582h-.012zM40.133 51.459h-.99l-1.868 8.478h1.208l.355-1.822h1.647l.355 1.822h1.208l-1.915-8.478zm-1.115 5.502.595-3.073h.022l.592 3.073h-1.208zM47.938 56.567h-.022l-1.825-5.108H44.93v8.478h1.208v-5.098h.025l1.846 5.098h1.136v-8.478h-1.208v5.108zM55.32 51.459l-.971 3.371h-.025l-.971-3.371h-1.28l1.659 4.895v3.584h1.208v-3.584l1.659-4.895h-1.28zM7.385 62.332h.582v1.634h.395v-1.634h.579v-.335H7.384v.335zM12.279 61.997l-.763 1.969h.42l.162-.447h.785l.168.447h.43l-.781-1.969h-.42zm-.062 1.189.268-.729.268.729h-.536zM17.117 63.239h.455v.254a.756.756 0 0 1-.467.166.496.496 0 0 1-.417-.188.823.823 0 0 1-.146-.513c0-.438.19-.657.567-.657.099-.01.199.016.28.074s.14.142.165.239l.389-.075c-.084-.385-.361-.579-.834-.579a.988.988 0 0 0-.688.254.963.963 0 0 0-.283.757c-.012.269.079.533.252.739a.946.946 0 0 0 .747.288c.308.009.607-.104.834-.313v-.776h-.853v.332zM22.059 61.997h-.398v1.969h1.379v-.335h-.981v-1.634zM26.237 61.997h-.398v1.969h.398v-1.969zM30.322 63.311l-.806-1.315h-.386v1.969h.37v-1.286l.791 1.286h.395v-1.969h-.364v1.315zM34.014 63.098h.981v-.335h-.981v-.432h1.056v-.335h-1.454v1.969h1.495v-.335h-1.096v-.532zM42.969 62.773h-.775v-.776h-.395v1.969h.395v-.861h.775v.861h.395v-1.969h-.395v.776zM46.683 63.098h.984v-.335h-.984v-.432h1.059v-.335h-1.454v1.969h1.491v-.335h-1.096v-.532zM51.721 63.099c.342-.053.517-.235.517-.548a.471.471 0 0 0-.193-.439 1.105 1.105 0 0 0-.576-.116h-.834v1.969h.395v-.823h.078a.533.533 0 0 1 .246.044.41.41 0 0 1 .14.144l.43.626h.473l-.24-.385a1.373 1.373 0 0 0-.436-.473zm-.399-.273h-.293v-.495h.311c.136-.011.272.005.402.047a.255.255 0 0 1 .086.205.258.258 0 0 1-.105.196c-.13.04-.266.056-.402.047zM55.52 63.098h.981v-.335h-.981v-.432h1.059v-.335h-1.457v1.969h1.494v-.335H55.52v-.532z"/></symbol><symbol id="icon-yaco" viewBox="0 0 64 64"><path fill="#afb1b8" style="fill:var(--color1, #afb1b8)" d="m12.255 0 9.543 9.034-17.713-.01v43.829h46.298V36.095l9.532 9.024V.001h-47.66zm37.709 35.034L22.907 9.42h27.057v25.614zm-8.401 11.408H11.411V16.964h2.131v27.482h28.021v1.996zM18.531 58.688l-1.114 2.294-1.114-2.294h-.934l1.626 3.059v1.782h.844v-1.782l1.622-3.059h-.931zm1.4 4.841.392-1.127h1.875l.396 1.127h.878l-1.832-4.84h-.755l-1.829 4.84h.874zm1.33-3.814.701 2.008h-1.403l.702-2.008zm4.434 1.892a1.098 1.098 0 0 0-.183.615c0 .408.143.739.429.994.288.253.671.379 1.15.379s.891-.13 1.237-.389l.273.322h.938l-.712-.841c.279-.381.419-.87.419-1.466h-.701c0 .326-.068.622-.203.888l-.934-1.104.329-.239c.233-.168.4-.337.502-.505a1.07 1.07 0 0 0 .153-.558.997.997 0 0 0-.339-.768c-.224-.208-.512-.313-.864-.313-.39 0-.7.111-.931.332-.231.219-.346.519-.346.898 0 .155.037.316.11.482.075.166.207.368.396.605-.359.257-.6.48-.721.668zm2.185 1.071a1.232 1.232 0 0 1-.765.273c-.242 0-.434-.07-.578-.209s-.216-.321-.216-.545c0-.259.133-.49.399-.691l.103-.073 1.057 1.247zm-.868-2.145c-.228-.281-.342-.515-.342-.701 0-.162.047-.296.14-.402s.218-.16.376-.16c.146 0 .267.045.362.136a.425.425 0 0 1 .143.322.6.6 0 0 1-.206.469l-.103.083-.369.253zm7.879 2.63c.333-.29.523-.694.572-1.21h-.838c-.044.346-.15.593-.316.741s-.414.223-.745.223c-.361 0-.636-.137-.824-.412-.186-.275-.279-.674-.279-1.197v-.429c.004-.516.104-.908.299-1.173.197-.268.479-.402.844-.402.315 0 .553.078.715.233.164.153.266.403.306.751h.838c-.053-.53-.243-.94-.569-1.23s-.756-.435-1.29-.435c-.397 0-.747.094-1.051.283-.301.188-.533.457-.695.804s-.243.75-.243 1.207v.452c.007.445.09.837.249 1.173s.386.597.678.781c.295.182.635.273 1.021.273.552 0 .994-.144 1.326-.432zm4.943-.678c.164-.359.246-.776.246-1.25v-.269c-.002-.472-.086-.885-.253-1.24a1.847 1.847 0 0 0-.708-.818c-.304-.191-.653-.286-1.047-.286s-.745.096-1.051.289c-.304.191-.54.467-.708.828a2.964 2.964 0 0 0-.249 1.25v.273c.002.463.086.872.253 1.227.168.355.406.628.712.821.308.191.658.286 1.051.286.397 0 .747-.095 1.05-.286a1.87 1.87 0 0 0 .705-.825zm-.9-2.736c.204.286.306.697.306 1.233v.253c0 .545-.101.96-.303 1.243-.199.284-.485.426-.858.426-.368 0-.656-.145-.864-.435-.206-.29-.309-.701-.309-1.233v-.279c.005-.521.109-.923.313-1.207a.995.995 0 0 1 .854-.429c.372 0 .659.143.861.429z"/></symbol><symbol id="icon-instagram" viewBox="0 0 64 64"><path fill="#afb1b8" style="fill:var(--color1, #afb1b8)" d="M63.937 18.816c-.15-3.401-.7-5.738-1.487-7.764a15.63 15.63 0 0 0-3.701-5.676 15.747 15.747 0 0 0-5.664-3.688C51.048.9 48.722.35 45.321.2 41.895.037 40.807 0 32.118 0s-9.777.038-13.19.188c-3.401.15-5.738.7-7.764 1.488a15.614 15.614 0 0 0-5.676 3.701A15.747 15.747 0 0 0 1.8 11.041C1.012 13.079.462 15.404.312 18.805c-.163 3.426-.2 4.514-.2 13.203S.15 41.785.3 45.198c.15 3.4.7 5.738 1.488 7.764a15.798 15.798 0 0 0 3.7 5.676 15.747 15.747 0 0 0 5.664 3.688c2.038.788 4.363 1.338 7.764 1.487 3.413.15 4.501.188 13.19.188s9.777-.037 13.19-.188c3.401-.15 5.738-.7 7.764-1.487a16.373 16.373 0 0 0 9.365-9.364c.787-2.038 1.338-4.364 1.488-7.764.15-3.413.188-4.501.188-13.19s-.013-9.777-.163-13.19zm-5.763 26.13c-.138 3.126-.663 4.813-1.1 5.939a10.617 10.617 0 0 1-6.077 6.077c-1.125.438-2.825.963-5.939 1.1-3.376.15-4.388.188-12.927.188s-9.564-.037-12.928-.188c-3.126-.137-4.813-.662-5.939-1.1a9.848 9.848 0 0 1-3.675-2.388 9.952 9.952 0 0 1-2.388-3.675c-.438-1.125-.963-2.826-1.1-5.939-.15-3.376-.188-4.389-.188-12.928s.037-9.564.188-12.927c.137-3.126.662-4.813 1.1-5.939A9.726 9.726 0 0 1 9.602 9.49a9.944 9.944 0 0 1 3.675-2.388c1.125-.438 2.826-.963 5.939-1.1 3.376-.15 4.389-.188 12.927-.188 8.552 0 9.564.038 12.928.188 3.126.138 4.813.663 5.939 1.1a9.835 9.835 0 0 1 3.675 2.388 9.96 9.96 0 0 1 2.388 3.676c.437 1.125.963 2.825 1.1 5.939.15 3.376.188 4.388.188 12.927s-.037 9.54-.188 12.915z"/><path fill="#afb1b8" style="fill:var(--color1, #afb1b8)" d="M32.119 15.565c-9.077 0-16.441 7.364-16.441 16.441s7.364 16.441 16.441 16.441c9.077 0 16.441-7.364 16.441-16.441s-7.364-16.441-16.441-16.441zm0 27.106c-5.888 0-10.665-4.776-10.665-10.665s4.776-10.665 10.665-10.665c5.889 0 10.665 4.776 10.665 10.665s-4.776 10.665-10.665 10.665zM53.048 14.915a3.838 3.838 0 1 1-7.675 0 3.838 3.838 0 0 1 7.675 0z"/></symbol><symbol id="icon-linkedin" viewBox="0 0 64 64"><path fill="#afb1b8" style="fill:var(--color1, #afb1b8)" d="M63.984 64v-.003H64V40.525c0-11.483-2.472-20.328-15.896-20.328-6.453 0-10.784 3.541-12.552 6.899h-.187v-5.827H22.637v42.728H35.89V42.84c0-5.571 1.056-10.957 7.955-10.957 6.797 0 6.899 6.357 6.899 11.315v20.803h13.24zM1.056 21.272h13.269V64H1.056V21.272zM7.685 0C3.442 0 0 3.443 0 7.685s3.443 7.757 7.685 7.757c4.243 0 7.685-3.515 7.685-7.757C15.367 3.442 11.925 0 7.685 0z"/></symbol><symbol id="icon-facebook" viewBox="0 0 64 64"><path fill="#afb1b8" style="fill:var(--color1, #afb1b8)" d="M42.659 10.627h5.843V.451C47.494.312 44.027 0 39.99 0c-8.424 0-14.195 5.299-14.195 15.037V24h-9.296v11.376h9.296V64h11.398V35.379h8.92l1.416-11.376H37.19v-7.837c.003-3.288.888-5.539 5.469-5.539z"/></symbol><symbol id="icon-twitter" viewBox="0 0 64 64"><path fill="#afb1b8" style="fill:var(--color1, #afb1b8)" d="M64 12.156a27.355 27.355 0 0 1-7.56 2.072 13.047 13.047 0 0 0 5.772-7.252 26.22 26.22 0 0 1-8.32 3.176A13.148 13.148 0 0 0 44.308 6c-7.264 0-13.112 5.896-13.112 13.124 0 1.04.088 2.04.304 2.992-10.908-.532-20.56-5.76-27.044-13.724-1.132 1.964-1.796 4.212-1.796 6.632 0 4.544 2.34 8.572 5.828 10.904-2.108-.04-4.176-.652-5.928-1.616v.144c0 6.376 4.548 11.672 10.512 12.892-1.068.292-2.232.432-3.44.432-.84 0-1.688-.048-2.484-.224 1.7 5.196 6.524 9.016 12.26 9.14A26.363 26.363 0 0 1 3.14 52.292c-1.076 0-2.108-.048-3.14-.18C5.812 55.86 12.7 58 20.128 58c24.144 0 37.344-20 37.344-37.336 0-.58-.02-1.14-.048-1.696 2.604-1.848 4.792-4.156 6.576-6.812z"/></symbol><symbol id="icon-astronaut" viewBox="0 0 64 64"><path fill="#2196f3" style="fill:var(--color2, #2196f3)" d="M63.948 9.048a1.067 1.067 0 0 0-.861-.725l-3.821-.556-1.71-3.462c-.358-.73-1.554-.73-1.913 0l-1.71 3.462-3.821.556a1.066 1.066 0 0 0-.592 1.818l2.766 2.696-.653 3.806c-.068.4.096.804.423 1.043.332.241.765.271 1.124.081l3.418-1.797 3.418 1.797a1.072 1.072 0 0 0 1.124-.081c.328-.239.493-.643.423-1.043l-.653-3.806 2.766-2.695a1.07 1.07 0 0 0 .27-1.093zm-4.926 2.654a1.064 1.064 0 0 0-.306.944l.382 2.228-2.001-1.052a1.066 1.066 0 0 0-.994 0l-2.001 1.052.382-2.228a1.068 1.068 0 0 0-.306-.944l-1.62-1.579 2.238-.325c.348-.05.648-.269.803-.584L56.6 7.187l1.001 2.027c.156.315.456.533.803.584l2.238.325-1.618 1.579zM52.267 41.044h-2.133v2.133h2.133v-2.133zM52.267 45.311h-2.133v2.133h2.133v-2.133zM54.4 43.178h-2.133v2.133H54.4v-2.133zM50.134 43.178h-2.133v2.133h2.133v-2.133zM44.8 52.778h-2.133v2.133H44.8v-2.133zM44.8 57.045h-2.133v2.133H44.8v-2.133zM46.934 54.911h-2.133v2.133h2.133v-2.133zM42.667 54.911h-2.133v2.133h2.133v-2.133zM32 48.511h-2.133v2.133H32v-2.133zM32 52.778h-2.133v2.133H32v-2.133zM34.133 50.645H32v2.133h2.133v-2.133zM29.867 50.645h-2.133v2.133h2.133v-2.133zM11.733 12.244H9.6v2.133h2.133v-2.133zM11.733 16.511H9.6v2.133h2.133v-2.133zM13.866 14.377h-2.133v2.133h2.133v-2.133zM9.6 14.377H7.467v2.133H9.6v-2.133z"/><path fill="#212121" style="fill:var(--color3, #212121)" d="M49.429 28.319a3.545 3.545 0 0 0-2.377-1.409 3.549 3.549 0 0 0-2.679.704l-2.505 1.92-3.795 2.834-2.716-1.082c4.843-2.173 8.227-7.017 8.227-12.64 0-7.646-6.245-13.867-13.922-13.867S15.74 11 15.74 18.646c0 2.771.829 5.348 2.24 7.517l-5.528-.048h-.01c-.017 0-.031.009-.047.01a1.036 1.036 0 0 0-.31.062c-.026.01-.052.015-.077.027-.013.005-.026.006-.038.013l-6.466 3.192-.002.001-3.787 1.821a.881.881 0 0 0-.126.07 3.562 3.562 0 0 0 .915 6.369 3.565 3.565 0 0 0 2.757-.257l2.776-1.476 4.528-2.338 2.714-.016L4.396 44.424l-.003.002-2.677 2.667a3.3 3.3 0 0 0-.98 2.355c0 .89.348 1.727.98 2.357.65.646 1.504.971 2.358.971a3.34 3.34 0 0 0 2.361-.971l2.628-2.618 3.482-2.599 1.802 1.794-3.523 3.508-.003.002-2.677 2.667a3.296 3.296 0 0 0-.98 2.355c0 .89.348 1.727.98 2.357.65.646 1.505.971 2.36.971s1.71-.324 2.361-.971l6.963-6.933.002-.003 2.019-2-.008-.008c.013-.013.031-.017.044-.031L32.217 38.98l6.942.988a.947.947 0 0 0 .524-.066c.035-.013.066-.03.099-.047.038-.019.079-.03.115-.054l6.427-4.267c.023-.016.036-.042.059-.059.026-.02.058-.029.081-.051l2.543-2.382a3.558 3.558 0 0 0 .424-4.724zM4.261 35.54c-.347.186-.74.223-1.117.103a1.428 1.428 0 0 1-.424-2.52l2.627-1.264.898 2.625-1.984 1.055zm6.994-3.655-3.097 1.6-.878-2.567 4.054-2.001-.079 2.968zm30.199-13.241c0 1.837-.438 3.569-1.198 5.119l-8.363-3.798a3.724 3.724 0 0 0-1.576-2.776l2.928-9.721c4.755 1.513 8.209 5.949 8.209 11.176zm-23.578 0c0-6.47 5.289-11.734 11.789-11.734.506 0 1 .043 1.49.104l-2.864 9.507c-.038-.001-.075-.012-.114-.012-2.065 0-3.745 1.675-3.745 3.733s1.68 3.733 3.745 3.733c1.389 0 2.589-.767 3.236-1.889l7.725 3.509c-2.149 2.893-5.59 4.78-9.473 4.78-6.5 0-11.789-5.264-11.789-11.734zm11.913 1.6c0 .882-.723 1.6-1.612 1.6s-1.612-.718-1.612-1.6c0-.882.723-1.6 1.612-1.6s1.612.718 1.612 1.6zM4.93 50.292a1.217 1.217 0 0 1-1.709.001 1.189 1.189 0 0 1 0-1.689l1.924-1.917 1.702 1.695-1.918 1.909zm6.427 7.467a1.217 1.217 0 0 1-1.71.001 1.189 1.189 0 0 1 0-1.689l1.925-1.918 1.704 1.695-1.919 1.91zm6.964-6.937-.003.002-3.53 3.52-1.704-1.695 3.526-3.51v-.001l.003-.002c.08-.08.13-.176.179-.271.014-.028.041-.051.052-.08.033-.082.038-.171.051-.257.006-.049.028-.095.028-.145 0-.072-.026-.141-.041-.211-.013-.064-.013-.129-.037-.191-.041-.1-.11-.189-.182-.275-.02-.023-.028-.053-.05-.076h-.001l-.002-.004-3.214-3.2c-.034-.034-.078-.048-.116-.077a.989.989 0 0 0-.174-.115.987.987 0 0 0-.187-.065 1.013 1.013 0 0 0-.206-.039 1.02 1.02 0 0 0-.191.01.982.982 0 0 0-.208.041.934.934 0 0 0-.189.09c-.04.022-.084.03-.122.058l-3.547 2.648-1.802-1.794 4.798-4.772 8.721 8.577-1.855 1.838zm13.637-14.034c-.031-.004-.06.008-.091.005a1.046 1.046 0 0 0-.23.014.983.983 0 0 0-.369.137.99.99 0 0 0-.166.123c-.026.022-.056.033-.08.059l-9.397 10.291-8.656-8.513 5.666-5.636a1.067 1.067 0 0 0-.76-1.822v-.001l-4.437.027.056-3.215 6.208.053a13.897 13.897 0 0 0 9.963 4.202c.875 0 1.728-.091 2.559-.245.08.064.159.129.259.17l4.819 1.92.661 3.287-6.005-.854zm8.083.357-.626-3.116 2.893-2.16 1.893 2.513-4.16 2.763zm7.507-5.662-1.676 1.57-1.862-2.473 1.663-1.275c.31-.239.702-.336 1.086-.286.386.054.727.256.96.569a1.428 1.428 0 0 1-.171 1.894z"/><path fill="#212121" style="fill:var(--color3, #212121)" d="m27.204 37.088-4.286-4.267a1.065 1.065 0 0 0-1.505 0l-4.285 4.267a1.07 1.07 0 0 0 0 1.512l4.285 4.267a1.065 1.065 0 0 0 1.505 0l4.286-4.267a1.067 1.067 0 0 0 0-1.512zm-5.038 3.518-2.773-2.762 2.773-2.762 2.774 2.762-2.774 2.762zM34.328 10.142l-.515 2.072c.142.035 3.475.903 3.475 4.298h2.133c0-4.034-3.331-5.931-5.093-6.369zM39.422 18.644h-2.133v2.133h2.133v-2.133z"/></symbol><symbol id="icon-clock" viewBox="0 0 64 64"><path fill="#212121" style="fill:var(--color3, #212121)" d="M62.593 30.602C62.589 13.697 48.883-.004 31.977 0S1.371 13.711 1.375 30.616a30.609 30.609 0 0 0 21.299 29.152c.121.038.247.058.374.057.241 0 .478-.065.685-.188.27-.16.472-.414.566-.713l7.73-24.5a3.826 3.826 0 0 0-.04-7.653 3.763 3.763 0 0 0-1.64.383L20.137 16.941a1.276 1.276 0 0 0-1.803 1.803l10.207 10.218a3.753 3.753 0 0 0 1.073 4.618l-7.365 23.346C7.693 51.564.24 35.418 5.602 20.863S27.11-1.146 41.665 4.216s22.009 21.508 16.647 36.063a28.092 28.092 0 0 1-14.924 15.947l-.796-3.749a1.275 1.275 0 0 0-2.097-.687l-7.674 6.851a1.276 1.276 0 0 0 .461 2.169l9.797 3.127a1.275 1.275 0 0 0 1.638-1.479l-.782-3.678a30.51 30.51 0 0 0 18.658-28.178zm-30.609-1.275a1.275 1.275 0 1 1 0 2.55 1.275 1.275 0 0 1 0-2.55zm4.201 29.728 4.368-3.897 1.206 5.681-5.574-1.784z"/><path fill="#2196f3" style="fill:var(--color2, #2196f3)" d="M30.709 6.37v2.551a1.275 1.275 0 1 0 2.55 0V6.37a1.275 1.275 0 0 0-2.55 0zM7.752 29.327a1.275 1.275 0 1 0 0 2.55h2.551a1.275 1.275 0 1 0 0-2.55H7.752zM56.216 31.878a1.275 1.275 0 1 0 0-2.55h-2.551a1.275 1.275 0 0 0 0 2.55h2.551z"/></symbol><symbol id="icon-diagram" viewBox="0 0 64 64"><path fill="#2196f3" style="fill:var(--color2, #2196f3)" d="M29.851 29.929h2.132v9.595h-2.132v-9.595zM38.38 34.194h2.132v5.331H38.38v-5.331zM21.322 37.392h2.132v2.132h-2.132v-2.132zM14.926 36.326h2.132v3.198h-2.132v-3.198z"/><path fill="#212121" style="fill:var(--color3, #212121)" d="M3.198 56.582h51.173a3.198 3.198 0 0 0 3.198-3.198V49.12a3.198 3.198 0 0 0-3.198-3.198h-1.066V19.335l6.056-5.737a3.216 3.216 0 1 0-.409-5.53 3.217 3.217 0 0 0-1.085 4.004l-4.563 4.325v-2.46a3.198 3.198 0 0 0-3.198-3.198H7.462a3.198 3.198 0 0 0-3.198 3.198V45.92H3.198A3.198 3.198 0 0 0 0 49.118v4.264a3.198 3.198 0 0 0 3.198 3.198zm57.57-46.909a1.066 1.066 0 1 1 0 2.131 1.066 1.066 0 0 1 0-2.131zM6.397 13.938c0-.589.477-1.066 1.066-1.066h42.644c.589 0 1.066.477 1.066 1.066v4.477l-2.132 2.026V16.07c0-.589-.477-1.066-1.066-1.066H9.595c-.589 0-1.066.477-1.066 1.066v26.653c0 .589.477 1.066 1.066 1.066h38.38c.589 0 1.066-.477 1.066-1.066V23.374l2.132-2.02v24.567H6.396V13.938zm9.595 13.859a3.197 3.197 0 1 0 2.214 5.496l3.706 1.859c.431.215.953.114 1.273-.245l7.878-8.863 7.744 5.803c.415.311.995.278 1.372-.079l6.73-6.375v16.262H10.661v-24.52h36.248v5.321l-7.543 7.143-7.809-5.854a1.066 1.066 0 0 0-1.436.144l-7.986 8.985-2.985-1.493c.022-.128.035-.257.041-.387a3.198 3.198 0 0 0-3.198-3.198zm1.066 3.198a1.066 1.066 0 1 1-2.131 0 1.066 1.066 0 0 1 2.131 0zm6.396 17.058h10.661v1.066c0 .589-.477 1.066-1.066 1.066H24.52a1.066 1.066 0 0 1-1.066-1.066v-1.066zM2.132 49.119c0-.589.477-1.066 1.066-1.066h18.124v1.066a3.198 3.198 0 0 0 3.198 3.198h8.529a3.198 3.198 0 0 0 3.198-3.198v-1.066h18.124c.589 0 1.066.477 1.066 1.066v4.264c0 .589-.477 1.066-1.066 1.066H3.198a1.066 1.066 0 0 1-1.066-1.066v-4.264z"/></symbol><symbol id="icon-antenna" viewBox="0 0 64 64"><path fill="#212121" style="fill:var(--color3, #212121)" d="M61.546 44.195 44.66 27.185l1.874-9.231a4.26 4.26 0 0 0 1.517.291h.013a4.319 4.319 0 1 0-4.018-2.872l-9.92 1.211L17.945.318a1.063 1.063 0 0 0-.753-.32c-.28.001-.548.113-.747.31L13.42 3.316a1.067 1.067 0 0 0 0 1.508l1.628 1.651a29.885 29.885 0 0 0 5.039 35.326.99.99 0 0 0 .292.195 6.276 6.276 0 0 0-.105 1.094v12.373h-12.8a5.34 5.34 0 0 0-5.333 5.333v2.133c0 .589.478 1.067 1.067 1.067h49.067c.589 0 1.067-.478 1.067-1.067v-2.133a5.34 5.34 0 0 0-5.333-5.333h-12.8v-5.484c2.005.421 4.048.635 6.097.64a29.697 29.697 0 0 0 14.08-3.567l1.636 1.646c.199.203.469.318.753.32.28-.001.548-.113.747-.31l3.025-3.008a1.067 1.067 0 0 0 0-1.508zM46.56 12.466a2.134 2.134 0 1 1 1.504 3.646h-.006a2.133 2.133 0 0 1-1.493-3.646h-.004zm-2.511 7.009-1.197 5.891-2.351-2.365 3.548-3.526zm-1.212-1.803-3.84 3.818-2.971-2.987 6.811-.831zM48.008 57.6a3.2 3.2 0 0 1 3.2 3.2v1.067H4.275V60.8a3.2 3.2 0 0 1 3.2-3.2h40.533zm-14.933-4.267v2.133H22.408v-2.133h10.667zM22.408 51.2v-8.107c0-2.588 2.393-4.693 5.333-4.693s5.333 2.106 5.333 4.693V51.2H22.407zm12.8-3.392v-4.715c0-3.764-3.349-6.827-7.467-6.827a7.6 7.6 0 0 0-6.562 3.572 27.737 27.737 0 0 1-4.557-31.774l37.204 37.417a27.643 27.643 0 0 1-18.618 2.326zm22.578-1.367L15.672 4.079l1.509-1.504 15.87 15.96c.007 0 .012.014.019.019l26.229 26.383-1.514 1.504z"/><path fill="#2196f3" style="fill:var(--color2, #2196f3)" d="M27.751 40.533h-.01a3.2 3.2 0 0 0-.01 6.4h.01a3.2 3.2 0 0 0 .01-6.4zm.747 3.957a1.067 1.067 0 1 1-.756-1.823 1.067 1.067 0 0 1 .747 1.823h.01z"/></symbol><symbol id="icon-envelope" viewBox="0 0 64 64"><path d="M58 8H6c-3.309 0-6 2.691-6 6v36c0 3.308 2.691 6 6 6h52c3.308 0 6-2.692 6-6V14c0-3.309-2.692-6-6-6zm0 4c.272 0 .53.056.766.155L32 35.354 5.233 12.155C5.469 12.057 5.728 12 6 12h52zm0 40H6a2 2 0 0 1-2-2V16.381l26.689 23.131c.377.326.844.488 1.311.488s.934-.162 1.311-.488L60 16.381V50a2 2 0 0 1-2 2z"/></symbol><symbol id="icon-phone" viewBox="0 0 64 64"><path fill="#757575" style="fill:var(--color4, #757575)" d="M46 0H18c-3.309 0-6 2.691-6 6v52c0 3.309 2.691 6 6 6h28c3.309 0 6-2.691 6-6V6c0-3.309-2.691-6-6-6zM18 4h28c1.103 0 2 .896 2 2v42H16V6a2 2 0 0 1 2-2zm28 56H18a2 2 0 0 1-2-2v-6h32v6c0 1.104-.897 2-2 2z"/></symbol></defs></svg>