<svg aria-hidden="true" style="position: absolute; width: 0; height: 0; overflow: hidden;" version="1.1" xmlns="http://www.w3.org/2000/svg" xmlns:xlink="http://www.w3.org/1999/xlink">
<defs>
<symbol id="icon-companytagline" viewBox="0 0 64 64">
<path fill="#afb1b8" style="fill: var(--color1, #afb1b8)" d="M32.289 31.257c-0.302-0.402-0.446-0.876-0.412-1.354v-1.963c0-0.602 0.136-1.059 0.409-1.372s0.742-0.469 1.406-0.467c0.625 0 1.068 0.133 1.33 0.399 0.286 0.34 0.425 0.755 0.393 1.174v0.461h-1.117v-0.467c0.004-0.153-0.007-0.306-0.032-0.457-0.016-0.104-0.072-0.199-0.16-0.272-0.115-0.078-0.259-0.116-0.405-0.106-0.153-0.010-0.305 0.030-0.426 0.112-0.097 0.080-0.162 0.185-0.185 0.299-0.032 0.16-0.047 0.323-0.044 0.485v2.382c-0.018 0.23 0.032 0.46 0.143 0.669 0.056 0.071 0.133 0.127 0.223 0.162s0.19 0.048 0.288 0.038c0.143 0.010 0.285-0.029 0.395-0.108 0.091-0.078 0.15-0.18 0.167-0.29 0.026-0.158 0.038-0.318 0.035-0.477v-0.483h1.117v0.441c0.031 0.437-0.104 0.87-0.386 1.234-0.257 0.292-0.694 0.437-1.337 0.437s-1.129-0.156-1.404-0.479z"></path>
<path fill="#afb1b8" style="fill: var(--color1, #afb1b8)" d="M36.941 31.277c-0.282-0.306-0.423-0.751-0.423-1.34v-2.065c0-0.583 0.141-1.024 0.423-1.324s0.754-0.449 1.416-0.447c0.657 0 1.126 0.149 1.409 0.447 0.282 0.3 0.426 0.741 0.426 1.324v2.065c0 0.583-0.143 1.030-0.43 1.338s-0.754 0.461-1.404 0.461c-0.65 0-1.131-0.156-1.416-0.459zM38.877 30.781c0.101-0.191 0.147-0.401 0.134-0.611v-2.528c0.013-0.206-0.032-0.412-0.132-0.599-0.057-0.072-0.136-0.129-0.228-0.165s-0.194-0.047-0.295-0.035c-0.1-0.012-0.203 0-0.295 0.035s-0.172 0.092-0.23 0.164c-0.102 0.187-0.148 0.393-0.134 0.599v2.54c-0.014 0.21 0.032 0.42 0.134 0.611 0.065 0.064 0.145 0.116 0.236 0.151s0.188 0.054 0.287 0.054c0.099 0 0.197-0.018 0.287-0.054s0.171-0.087 0.236-0.151v-0.012z"></path>
<path fill="#afb1b8" style="fill: var(--color1, #afb1b8)" d="M41.534 26.161h1.203l0.904 3.81 0.925-3.81h1.17l0.118 5.499h-0.865l-0.093-3.822-0.893 3.822h-0.694l-0.925-3.836-0.086 3.836h-0.874l0.109-5.499z"></path>
<path fill="#afb1b8" style="fill: var(--color1, #afb1b8)" d="M47.204 26.161h1.873c1.079 0 1.619 0.52 1.619 1.561 0 0.997-0.568 1.495-1.705 1.494h-0.638v2.444h-1.157l0.007-5.499zM48.804 28.511c0.114 0.012 0.23 0.003 0.34-0.027s0.211-0.080 0.296-0.147c0.133-0.186 0.191-0.404 0.167-0.621 0.006-0.168-0.013-0.335-0.056-0.499-0.017-0.055-0.045-0.106-0.085-0.151s-0.089-0.082-0.146-0.111c-0.161-0.066-0.338-0.097-0.516-0.088h-0.449v1.643h0.449z"></path>
<path fill="#afb1b8" style="fill: var(--color1, #afb1b8)" d="M52.364 26.161h1.242l1.274 5.499h-1.078l-0.252-1.268h-1.108l-0.259 1.268h-1.094l1.274-5.499zM53.425 29.755l-0.433-2.308-0.432 2.308h0.865z"></path>
<path fill="#afb1b8" style="fill: var(--color1, #afb1b8)" d="M55.91 26.161h0.81l1.55 3.137v-3.137h0.96v5.499h-0.77l-1.559-3.275v3.275h-0.992l0.002-5.499z"></path>
<path fill="#afb1b8" style="fill: var(--color1, #afb1b8)" d="M61.477 29.563l-1.288-3.395h1.085l0.786 2.181 0.738-2.181h1.062l-1.272 3.395v2.097h-1.11v-2.097z"></path>
<path fill="#afb1b8" style="fill: var(--color1, #afb1b8)" d="M34.075 34.064v0.288h-0.944v2.234h-0.396v-2.234h-0.948v-0.288h2.288z"></path>
<path fill="#afb1b8" style="fill: var(--color1, #afb1b8)" d="M37.033 36.586h-0.305c-0.031 0.002-0.062-0.007-0.086-0.024-0.023-0.015-0.041-0.035-0.051-0.058l-0.273-0.599h-1.309l-0.273 0.599c-0.008 0.025-0.022 0.048-0.042 0.068-0.024 0.017-0.055 0.025-0.086 0.024h-0.305l1.157-2.522h0.403l1.17 2.512zM35.118 35.65h1.092l-0.463-1.026c-0.034-0.078-0.063-0.157-0.086-0.238-0.016 0.048-0.030 0.094-0.044 0.134l-0.042 0.106-0.458 1.024z"></path>
<path fill="#afb1b8" style="fill: var(--color1, #afb1b8)" d="M39.027 36.339c0.072 0.003 0.145 0.003 0.217 0 0.063-0.006 0.124-0.016 0.185-0.030 0.057-0.012 0.112-0.027 0.167-0.046 0.051-0.018 0.102-0.040 0.155-0.062v-0.567h-0.463c-0.011 0.001-0.023-0.001-0.034-0.004s-0.021-0.009-0.029-0.016c-0.008-0.006-0.014-0.013-0.018-0.021s-0.006-0.017-0.005-0.025v-0.194h0.897v0.967c-0.073 0.045-0.151 0.085-0.231 0.12-0.082 0.035-0.168 0.064-0.257 0.086-0.095 0.024-0.191 0.041-0.289 0.052-0.112 0.011-0.225 0.016-0.338 0.016-0.2 0.002-0.397-0.030-0.583-0.094-0.173-0.060-0.331-0.15-0.463-0.264-0.129-0.115-0.23-0.251-0.298-0.399-0.073-0.167-0.109-0.345-0.106-0.523-0.002-0.18 0.033-0.358 0.104-0.527 0.066-0.149 0.168-0.285 0.298-0.399 0.132-0.114 0.289-0.203 0.463-0.262 0.198-0.064 0.408-0.096 0.62-0.094 0.108-0 0.215 0.007 0.322 0.022 0.094 0.013 0.186 0.035 0.275 0.064 0.081 0.026 0.158 0.060 0.231 0.1 0.071 0.039 0.138 0.084 0.201 0.132l-0.111 0.156c-0.009 0.014-0.022 0.026-0.038 0.035s-0.034 0.013-0.053 0.013c-0.026-0.001-0.050-0.008-0.072-0.020-0.035-0.016-0.072-0.036-0.113-0.060-0.049-0.027-0.101-0.049-0.155-0.068-0.069-0.024-0.14-0.043-0.213-0.056-0.097-0.015-0.195-0.023-0.294-0.022-0.153-0.002-0.304 0.022-0.446 0.070-0.129 0.045-0.245 0.113-0.34 0.2-0.096 0.091-0.169 0.197-0.215 0.314-0.103 0.273-0.103 0.568 0 0.841 0.051 0.119 0.129 0.227 0.231 0.318 0.095 0.087 0.21 0.155 0.338 0.2 0.147 0.044 0.303 0.061 0.458 0.050z"></path>
<path fill="#afb1b8" style="fill: var(--color1, #afb1b8)" d="M42.714 36.299h1.263v0.288h-1.649v-2.522h0.395l-0.009 2.235z"></path>
<path fill="#afb1b8" style="fill: var(--color1, #afb1b8)" d="M45.291 36.586h-0.396v-2.522h0.396v2.522z"></path>
<path fill="#afb1b8" style="fill: var(--color1, #afb1b8)" d="M46.762 34.076c0.023 0.012 0.044 0.027 0.060 0.046l1.691 1.901c-0.002-0.030-0.002-0.060 0-0.090 0-0.028 0-0.056 0-0.082v-1.797h0.345v2.532h-0.199c-0.029 0.002-0.059-0.003-0.086-0.014-0.024-0.013-0.045-0.029-0.063-0.048l-1.688-1.899c0 0.030 0 0.058 0 0.086s0 0.054 0 0.078v1.797h-0.331v-2.522h0.206c0.022 0 0.044 0.004 0.065 0.012z"></path>
<path fill="#afb1b8" style="fill: var(--color1, #afb1b8)" d="M51.769 34.064v0.278h-1.402v0.833h1.136v0.268h-1.136v0.861h1.402v0.278h-1.809v-2.516h1.809z"></path>
<path fill="#afb1b8" style="fill: var(--color1, #afb1b8)" d="M10.323 18.489l17.563 4.305v15.086l-17.563-4.303v-15.088zM9.196 17.203v17.107l19.813 4.858v-17.105l-19.813-4.86z"></path>
<path fill="#afb1b8" style="fill: var(--color1, #afb1b8)" d="M19.815 47.11l-19.815-4.862v-17.105l19.815 4.86v17.107z"></path>
<path fill="#afb1b8" style="fill: var(--color1, #afb1b8)" d="M9.525 18.295l17.334 4.251-7.372 6.366-17.336-4.253 7.374-6.364zM9.196 17.203l-9.196 7.939 19.815 4.86 9.194-7.939-19.813-4.86z"></path>
<path fill="#afb1b8" style="fill: var(--color1, #afb1b8)" d="M20.93 46.147l8.079-6.977-8.079-1.983v8.96z"></path>
</symbol>
<symbol id="icon-brand" viewBox="0 0 64 64">
<path fill="#afb1b8" style="fill: var(--color1, #afb1b8)" d="M4.832 47.477c0.248 0.281 0.379 0.632 0.372 0.992 0.013 0.235-0.033 0.47-0.133 0.687s-0.252 0.411-0.445 0.567c-0.481 0.333-1.077 0.495-1.678 0.458h-2.95v-6.29h2.889c0.57-0.035 1.136 0.113 1.601 0.418 0.187 0.143 0.334 0.324 0.432 0.528s0.141 0.426 0.129 0.649c0.017 0.347-0.102 0.688-0.336 0.962-0.224 0.25-0.534 0.423-0.879 0.492 0.391 0.065 0.745 0.256 0.997 0.538zM1.373 46.528h1.235c0.281 0.019 0.559-0.055 0.785-0.209 0.093-0.077 0.165-0.172 0.211-0.279s0.065-0.221 0.054-0.336c0.009-0.114-0.010-0.228-0.055-0.334s-0.116-0.202-0.206-0.28c-0.233-0.158-0.52-0.233-0.809-0.212h-1.215v1.65zM3.514 48.94c0.099-0.079 0.177-0.178 0.228-0.288s0.073-0.231 0.064-0.351c0.008-0.121-0.015-0.243-0.067-0.354s-0.131-0.211-0.231-0.291c-0.242-0.164-0.539-0.245-0.839-0.227h-1.295v1.73h1.312c0.295 0.016 0.588-0.061 0.829-0.218z"></path>
<path fill="#afb1b8" style="fill: var(--color1, #afb1b8)" d="M10.739 50.181l-1.607-2.458h-0.604v2.458h-1.383v-6.29h2.618c0.66-0.042 1.312 0.149 1.822 0.535 0.366 0.341 0.587 0.791 0.622 1.268s-0.116 0.95-0.428 1.334c-0.323 0.339-0.764 0.565-1.248 0.639l1.711 2.513h-1.503zM8.527 46.866h1.131c0.785 0 1.178-0.317 1.178-0.953 0.008-0.13-0.014-0.259-0.063-0.381s-0.127-0.233-0.225-0.326c-0.248-0.189-0.568-0.281-0.889-0.255h-1.144l0.013 1.914z"></path>
<path fill="#afb1b8" style="fill: var(--color1, #afb1b8)" d="M18.296 48.915h-2.755l-0.487 1.266h-1.45l2.53-6.219h1.567l2.52 6.219h-1.45l-0.477-1.266zM17.927 47.962l-1.007-2.655-1.007 2.655h2.013z"></path>
<path fill="#afb1b8" style="fill: var(--color1, #afb1b8)" d="M27.756 50.181h-1.373l-3.077-4.277v4.277h-1.369v-6.29h1.369l3.077 4.302v-4.302h1.373v6.29z"></path>
<path fill="#afb1b8" style="fill: var(--color1, #afb1b8)" d="M35.589 48.675c-0.284 0.475-0.716 0.861-1.242 1.109-0.597 0.276-1.261 0.412-1.93 0.396h-2.443v-6.29h2.443c0.668-0.016 1.33 0.117 1.93 0.387 0.525 0.242 0.958 0.625 1.242 1.097 0.282 0.512 0.43 1.077 0.43 1.65s-0.147 1.139-0.43 1.65zM34.018 48.525c0.392-0.418 0.607-0.95 0.607-1.501s-0.215-1.083-0.607-1.501c-0.474-0.379-1.091-0.571-1.718-0.535h-0.953v4.071h0.953c0.627 0.036 1.245-0.156 1.718-0.535z"></path>
<path fill="#afb1b8" style="fill: var(--color1, #afb1b8)" d="M19.155 8.906c0 0 17.716 6.124 17.34 14.985v14.988c0 0-17.702-6.127-17.333-14.988l-0.007-14.985z"></path>
<path fill="#afb1b8" style="fill: var(--color1, #afb1b8)" d="M52.277 35.371c3.346-2.108 7.216-3.414 11.255-3.798v-4.692c-4.655 1.643-8.603 4.621-11.255 8.49z"></path>
<path fill="#afb1b8" style="fill: var(--color1, #afb1b8)" d="M50.267 36.784c2.739-5.049 7.486-8.945 13.266-10.886v-13.52c0 0-25.229 8.723-24.696 21.343v21.34c0 0 1.124-0.39 2.893-1.121 0-0.682 0-1.37 0.081-2.062 0.522-5.859 3.564-11.287 8.457-15.093z"></path>
<path fill="#afb1b8" style="fill: var(--color1, #afb1b8)" d="M47.868 44.712c0.133-1.48 0.428-2.944 0.883-4.369-3.047 3.286-4.892 7.364-5.275 11.661-0.037 0.406-0.057 0.811-0.067 1.229 1.433-0.63 3.101-1.417 4.852-2.341-0.447-2.033-0.579-4.113-0.393-6.179z"></path>
<path fill="#afb1b8" style="fill: var(--color1, #afb1b8)" d="M48.871 44.788c-0.168 1.87-0.063 3.751 0.312 5.595 6.893-3.776 14.638-9.611 14.339-16.663v-0.614c-4.925 0.505-9.532 2.476-13.115 5.611-0.839 1.943-1.357 3.989-1.537 6.072z"></path>
</symbol>
<symbol id="icon-fosterpeters" viewBox="0 0 64 64">
<path fill="#2196f3" style="fill: var(--color2, #2196f3)" d="M9.898 26.054h-0.002c-1.806 0-3.269 1.301-3.269 2.905v0.002c0 1.605 1.464 2.905 3.269 2.905h0.002c1.806 0 3.269-1.301 3.269-2.905v-0.002c0-1.605-1.464-2.905-3.269-2.905z"></path>
<path fill="#2196f3" style="fill: var(--color2, #2196f3)" d="M34.029 25.125c-0.005-2.229-1.003-4.365-2.777-5.941s-4.177-2.464-6.684-2.469v0c-2.509 0.004-4.913 0.891-6.687 2.468s-2.773 3.713-2.778 5.942v12.29c0 0 18.924-1.873 18.926-12.288v-0.002z"></path>
<path fill="#2196f3" style="fill: var(--color2, #2196f3)" d="M0 41.449c0.005 1.551 0.7 3.037 1.933 4.134s2.906 1.715 4.651 1.719c1.745-0.005 3.416-0.623 4.65-1.719s1.929-2.582 1.934-4.132v-8.552c0 0-13.168 1.304-13.168 8.55zM6.584 42.981c-0.341 0-0.674-0.090-0.958-0.258s-0.505-0.408-0.635-0.688c-0.13-0.28-0.165-0.588-0.098-0.885s0.231-0.57 0.472-0.785 0.548-0.36 0.883-0.419c0.334-0.059 0.681-0.029 0.996 0.087s0.584 0.312 0.774 0.564c0.189 0.252 0.291 0.548 0.291 0.851 0.001 0.202-0.043 0.402-0.129 0.588s-0.213 0.356-0.373 0.499c-0.16 0.143-0.351 0.256-0.56 0.334s-0.434 0.117-0.661 0.117v-0.006z"></path>
<path fill="#2196f3" style="fill: var(--color2, #2196f3)" d="M19.891 42.137h-1.271v1.313h-0.662v-3.212h2.091v0.536h-1.429v0.829h1.271v0.534zM23.072 41.917c0 0.316-0.056 0.593-0.168 0.832s-0.272 0.422-0.481 0.551c-0.207 0.129-0.446 0.194-0.715 0.194-0.266 0-0.504-0.064-0.712-0.192s-0.371-0.31-0.485-0.547c-0.115-0.238-0.173-0.512-0.174-0.821v-0.159c0-0.316 0.057-0.594 0.17-0.834 0.115-0.241 0.276-0.426 0.483-0.554 0.209-0.129 0.447-0.194 0.715-0.194s0.505 0.065 0.712 0.194c0.209 0.128 0.37 0.313 0.483 0.554 0.115 0.24 0.172 0.517 0.172 0.832v0.143zM22.401 41.771c0-0.337-0.060-0.593-0.181-0.768s-0.293-0.263-0.516-0.263c-0.222 0-0.393 0.087-0.514 0.26-0.121 0.172-0.182 0.425-0.183 0.759v0.157c0 0.328 0.060 0.582 0.181 0.763s0.294 0.271 0.521 0.271c0.222 0 0.393-0.087 0.512-0.26 0.119-0.175 0.179-0.429 0.181-0.763v-0.157zM25.218 42.607c0-0.125-0.044-0.221-0.132-0.287-0.088-0.068-0.247-0.138-0.476-0.212-0.229-0.075-0.411-0.149-0.545-0.221-0.365-0.197-0.547-0.463-0.547-0.796 0-0.174 0.049-0.328 0.146-0.463 0.099-0.137 0.239-0.243 0.421-0.32 0.184-0.076 0.39-0.115 0.618-0.115 0.229 0 0.434 0.042 0.613 0.126 0.179 0.082 0.318 0.199 0.417 0.351 0.1 0.151 0.15 0.324 0.15 0.516h-0.662c0-0.147-0.046-0.261-0.139-0.342-0.093-0.082-0.223-0.123-0.39-0.123-0.162 0-0.288 0.035-0.377 0.104-0.090 0.068-0.135 0.157-0.135 0.269 0 0.104 0.052 0.192 0.157 0.263 0.106 0.071 0.261 0.137 0.465 0.199 0.377 0.113 0.651 0.254 0.823 0.421s0.258 0.377 0.258 0.626c0 0.278-0.105 0.496-0.316 0.655-0.21 0.157-0.493 0.236-0.849 0.236-0.247 0-0.472-0.045-0.675-0.135-0.203-0.091-0.358-0.215-0.465-0.373-0.106-0.157-0.159-0.34-0.159-0.547h0.664c0 0.354 0.212 0.532 0.635 0.532 0.157 0 0.28-0.032 0.368-0.095 0.088-0.065 0.132-0.154 0.132-0.269zM28.75 40.774h-0.984v2.676h-0.662v-2.676h-0.971v-0.536h2.616v0.536zM31.062 42.058h-1.271v0.86h1.491v0.532h-2.153v-3.212h2.148v0.536h-1.487v0.765h1.271v0.518zM32.859 42.274h-0.527v1.176h-0.662v-3.212h1.193c0.379 0 0.672 0.085 0.878 0.254s0.309 0.408 0.309 0.717c0 0.219-0.048 0.402-0.143 0.549-0.094 0.146-0.237 0.262-0.43 0.349l0.695 1.313v0.031h-0.71l-0.602-1.176zM32.332 41.738h0.534c0.166 0 0.295-0.042 0.386-0.126 0.091-0.085 0.137-0.202 0.137-0.351 0-0.151-0.043-0.271-0.13-0.357-0.085-0.087-0.217-0.13-0.395-0.13h-0.532v0.964zM36.342 42.318v1.132h-0.662v-3.212h1.253c0.241 0 0.453 0.044 0.635 0.132 0.184 0.088 0.325 0.214 0.423 0.377 0.099 0.162 0.148 0.346 0.148 0.554 0 0.315-0.108 0.563-0.324 0.746-0.215 0.181-0.513 0.271-0.893 0.271h-0.58zM36.342 41.782h0.591c0.175 0 0.308-0.041 0.399-0.124 0.093-0.082 0.139-0.2 0.139-0.353 0-0.157-0.046-0.285-0.139-0.382s-0.221-0.147-0.384-0.15h-0.607v1.008zM40.529 42.058h-1.271v0.86h1.491v0.532h-2.153v-3.212h2.148v0.536h-1.487v0.765h1.271v0.518zM43.6 40.774h-0.984v2.676h-0.662v-2.676h-0.971v-0.536h2.616v0.536zM45.912 42.058h-1.271v0.86h1.491v0.532h-2.153v-3.212h2.148v0.536h-1.487v0.765h1.271v0.518zM47.709 42.274h-0.527v1.176h-0.662v-3.212h1.193c0.379 0 0.672 0.085 0.878 0.254s0.309 0.408 0.309 0.717c0 0.219-0.048 0.402-0.143 0.549-0.094 0.146-0.238 0.262-0.43 0.349l0.695 1.313v0.031h-0.71l-0.602-1.176zM47.182 41.738h0.534c0.166 0 0.295-0.042 0.386-0.126 0.091-0.085 0.137-0.202 0.137-0.351 0-0.151-0.043-0.271-0.13-0.357-0.085-0.087-0.217-0.13-0.395-0.13h-0.532v0.964zM51.071 42.607c0-0.125-0.044-0.221-0.132-0.287-0.088-0.068-0.247-0.138-0.476-0.212-0.229-0.075-0.411-0.149-0.545-0.221-0.365-0.197-0.547-0.463-0.547-0.796 0-0.174 0.049-0.328 0.146-0.463 0.099-0.137 0.239-0.243 0.421-0.32 0.184-0.076 0.39-0.115 0.618-0.115 0.229 0 0.434 0.042 0.613 0.126 0.179 0.082 0.318 0.199 0.417 0.351 0.1 0.151 0.15 0.324 0.15 0.516h-0.662c0-0.147-0.046-0.261-0.139-0.342-0.093-0.082-0.223-0.123-0.391-0.123-0.162 0-0.288 0.035-0.377 0.104-0.090 0.068-0.135 0.157-0.135 0.269 0 0.104 0.052 0.192 0.157 0.263 0.106 0.071 0.261 0.137 0.465 0.199 0.377 0.113 0.651 0.254 0.823 0.421s0.258 0.377 0.258 0.626c0 0.278-0.105 0.496-0.315 0.655-0.21 0.157-0.493 0.236-0.849 0.236-0.247 0-0.472-0.045-0.675-0.135-0.203-0.091-0.358-0.215-0.465-0.373-0.106-0.157-0.159-0.34-0.159-0.547h0.664c0 0.354 0.212 0.532 0.635 0.532 0.157 0 0.28-0.032 0.368-0.095 0.088-0.065 0.132-0.154 0.132-0.269z"></path>
</symbol>
<symbol id="icon-company" viewBox="0 0 64 64">
<path fill="#afb1b8" style="fill: var(--color1, #afb1b8)" d="M10.533 60.589c0.023 0.001 0.045 0.005 0.066 0.013s0.039 0.020 0.055 0.034l0.31 0.297c-0.241 0.24-0.538 0.432-0.872 0.563-0.391 0.143-0.813 0.212-1.237 0.202-0.399 0.007-0.795-0.057-1.163-0.189-0.333-0.121-0.631-0.302-0.876-0.532-0.25-0.239-0.442-0.518-0.566-0.822-0.136-0.339-0.202-0.696-0.198-1.055-0.005-0.361 0.067-0.72 0.213-1.058 0.135-0.306 0.34-0.586 0.601-0.822 0.265-0.232 0.582-0.414 0.931-0.536 0.382-0.129 0.789-0.193 1.198-0.189 0.38-0.008 0.759 0.050 1.113 0.172 0.307 0.116 0.589 0.276 0.834 0.475l-0.26 0.317c-0.018 0.022-0.040 0.042-0.066 0.057-0.031 0.018-0.068 0.027-0.105 0.024-0.040-0.002-0.079-0.014-0.112-0.034l-0.14-0.084-0.194-0.108c-0.084-0.040-0.171-0.075-0.26-0.104-0.115-0.036-0.233-0.064-0.353-0.084-0.152-0.024-0.307-0.036-0.461-0.034-0.295-0.003-0.588 0.045-0.861 0.142-0.255 0.089-0.485 0.225-0.675 0.398-0.193 0.184-0.342 0.399-0.438 0.634-0.109 0.268-0.163 0.551-0.159 0.836-0.005 0.289 0.049 0.576 0.159 0.849 0.095 0.232 0.241 0.447 0.43 0.63 0.178 0.171 0.398 0.305 0.644 0.391 0.253 0.091 0.525 0.137 0.799 0.135 0.158 0.002 0.316-0.007 0.473-0.027 0.256-0.027 0.501-0.104 0.717-0.226 0.108-0.062 0.211-0.132 0.306-0.209 0.040-0.033 0.092-0.052 0.147-0.054z"></path>
<path fill="#afb1b8" style="fill: var(--color1, #afb1b8)" d="M19.491 59.099c0.005 0.358-0.066 0.713-0.209 1.048-0.126 0.304-0.325 0.581-0.584 0.813s-0.571 0.414-0.916 0.534c-0.759 0.252-1.598 0.252-2.358 0-0.343-0.122-0.654-0.304-0.911-0.536-0.259-0.236-0.459-0.516-0.589-0.822-0.279-0.679-0.279-1.42 0-2.099 0.132-0.306 0.333-0.587 0.589-0.826 0.26-0.224 0.57-0.4 0.911-0.515 0.758-0.256 1.599-0.256 2.358 0 0.344 0.122 0.656 0.304 0.915 0.536 0.255 0.234 0.454 0.51 0.585 0.812 0.144 0.337 0.215 0.695 0.209 1.055zM18.676 59.099c0.006-0.286-0.044-0.571-0.147-0.842-0.087-0.233-0.228-0.447-0.415-0.63-0.182-0.173-0.406-0.309-0.655-0.398-0.552-0.184-1.162-0.184-1.714 0-0.25 0.089-0.474 0.224-0.655 0.398-0.189 0.182-0.332 0.397-0.419 0.63-0.197 0.549-0.197 1.136 0 1.685 0.087 0.233 0.23 0.448 0.419 0.63 0.182 0.172 0.406 0.307 0.655 0.394 0.553 0.179 1.161 0.179 1.714 0 0.249-0.087 0.473-0.222 0.655-0.394 0.186-0.183 0.327-0.398 0.415-0.63 0.104-0.272 0.154-0.556 0.147-0.842z"></path>
<path fill="#afb1b8" style="fill: var(--color1, #afb1b8)" d="M25.602 59.982l0.081 0.189c0.031-0.067 0.058-0.128 0.089-0.189 0.030-0.063 0.063-0.125 0.101-0.185l1.981-3.13c0.039-0.054 0.074-0.087 0.113-0.098 0.053-0.014 0.108-0.020 0.163-0.017h0.585v5.090h-0.694v-3.743c0-0.047 0-0.101 0-0.158-0.004-0.058-0.004-0.117 0-0.175l-1.993 3.174c-0.025 0.047-0.066 0.088-0.117 0.116s-0.11 0.043-0.17 0.042h-0.113c-0.060 0.001-0.12-0.014-0.171-0.042s-0.091-0.069-0.116-0.116l-2.051-3.194c0 0.061 0 0.121 0 0.182s0 0.114 0 0.162v3.743h-0.671v-5.080h0.585c0.055-0.003 0.11 0.003 0.163 0.017 0.048 0.021 0.087 0.055 0.109 0.098l2.024 3.133c0.040 0.058 0.073 0.119 0.101 0.182z"></path>
<path fill="#afb1b8" style="fill: var(--color1, #afb1b8)" d="M33.059 59.729v1.907h-0.776v-5.084h1.729c0.326-0.005 0.652 0.032 0.966 0.111 0.251 0.062 0.484 0.17 0.682 0.317 0.172 0.138 0.305 0.308 0.388 0.499 0.091 0.207 0.136 0.428 0.132 0.65 0.003 0.223-0.045 0.444-0.144 0.65-0.093 0.195-0.236 0.369-0.419 0.509-0.199 0.153-0.433 0.268-0.686 0.337-0.302 0.084-0.618 0.124-0.935 0.118l-0.938-0.013zM33.059 59.183h0.938c0.204 0.002 0.407-0.024 0.601-0.077 0.16-0.047 0.308-0.121 0.434-0.219 0.117-0.093 0.207-0.209 0.264-0.337 0.064-0.136 0.095-0.281 0.093-0.428 0.009-0.141-0.017-0.283-0.078-0.414s-0.153-0.25-0.271-0.347c-0.296-0.201-0.668-0.298-1.043-0.273h-0.938v2.095z"></path>
<path fill="#afb1b8" style="fill: var(--color1, #afb1b8)" d="M43.482 61.642h-0.613c-0.061 0.002-0.122-0.015-0.17-0.047-0.044-0.032-0.079-0.072-0.101-0.118l-0.527-1.23h-2.648l-0.547 1.23c-0.020 0.045-0.054 0.084-0.097 0.115-0.049 0.034-0.111 0.052-0.175 0.050h-0.613l2.327-5.091h0.807l2.358 5.091zM39.643 59.752h2.187l-0.923-2.072c-0.071-0.156-0.129-0.316-0.174-0.478l-0.089 0.266c-0.027 0.081-0.058 0.155-0.085 0.216l-0.915 2.069z"></path>
<path fill="#afb1b8" style="fill: var(--color1, #afb1b8)" d="M46.832 56.575c0.046 0.022 0.086 0.053 0.116 0.091l3.393 3.838c0-0.061 0-0.121 0-0.179s0-0.114 0-0.168v-3.605h0.694v5.091h-0.388c-0.055 0.001-0.11-0.009-0.159-0.030-0.048-0.024-0.090-0.056-0.124-0.094l-3.389-3.834c0.004 0.058 0.004 0.117 0 0.175 0 0.057 0 0.108 0 0.155v3.629h-0.694v-5.091h0.411c0.048-0.001 0.096 0.007 0.139 0.024z"></path>
<path fill="#afb1b8" style="fill: var(--color1, #afb1b8)" d="M56.751 59.618v2.022h-0.776v-2.022l-2.144-3.066h0.694c0.060-0.003 0.119 0.012 0.167 0.044 0.042 0.033 0.078 0.072 0.105 0.115l1.342 1.978c0.054 0.084 0.101 0.162 0.14 0.236s0.070 0.145 0.097 0.216l0.101-0.219c0.038-0.080 0.082-0.158 0.132-0.232l1.322-1.991c0.028-0.040 0.062-0.076 0.101-0.108 0.046-0.035 0.106-0.053 0.167-0.050h0.702l-2.148 3.079z"></path>
<path fill="#afb1b8" style="fill: var(--color1, #afb1b8)" d="M25.218 48.009c0.337 0.037 0.679 0.067 1.024 0.094 5.232-2.034 9.658-5.362 12.725-9.569s4.639-9.107 4.519-14.085l-5.766-5.010c1.172 5.301 0.624 10.781-1.584 15.827s-5.988 9.458-10.918 12.743z"></path>
<path fill="#afb1b8" style="fill: var(--color1, #afb1b8)" d="M23.159 47.776l0.155 0.027c5.268-3.274 9.284-7.845 11.529-13.123s2.616-11.020 1.065-16.484l-8.213-7.136c3.322 5.865 4.659 12.429 3.856 18.929s-3.713 12.667-8.393 17.786z"></path>
<path fill="#afb1b8" style="fill: var(--color1, #afb1b8)" d="M51.012 30.331c-1.395 5.471-4.784 10.405-9.663 14.069-1.425 1.076-2.962 2.035-4.591 2.864 3.973-1.015 7.625-2.808 10.674-5.243s5.414-5.445 6.912-8.799l-3.331-2.891z"></path>
<path fill="#afb1b8" style="fill: var(--color1, #afb1b8)" d="M49.705 29.526l-4.742-4.12c-0.091 4.698-1.628 9.289-4.452 13.296s-6.831 7.284-11.606 9.489h0.023c1.064-0 2.127-0.055 3.183-0.165 4.462-1.582 8.404-4.1 11.474-7.328s5.172-7.066 6.119-11.172z"></path>
<path fill="#afb1b8" style="fill: var(--color1, #afb1b8)" d="M23.845 8.051l-5.657-4.922c-5.058 1.698-9.407 4.683-12.48 8.565s-4.725 8.479-4.741 13.19v0c0.019 5.206 2.035 10.257 5.731 14.354s8.857 7.008 14.67 8.269c5.189-5.493 8.227-12.28 8.672-19.375s-1.724-14.13-6.195-20.080z"></path>
<path fill="#afb1b8" style="fill: var(--color1, #afb1b8)" d="M62.777 28.768c-0.020-6.176-2.853-12.094-7.88-16.461s-11.838-6.828-18.946-6.846c-3.285-0.003-6.541 0.524-9.605 1.553l34.639 30.096c1.186-2.66 1.793-5.489 1.791-8.342z"></path>
</symbol>
<symbol id="icon-tagline" viewBox="0 0 64 64">
<path fill="#afb1b8" style="fill: var(--color1, #afb1b8)" d="M28.448 3.612h-0.168c-0.258-0.016-0.517-0.022-0.775-0.028v0h-0.56c-0.489 0-0.987 0.013-1.482 0.038-0.037-0.003-0.075-0.003-0.112 0-4.485 0.254-8.88 1.375-12.943 3.302l-0.532 0.257v27.251l1.245-0.422c1.093-0.376 2.257-0.714 3.462-1.027 3.257-0.836 6.602-1.281 9.963-1.324v3.58c-0.445 0.003-0.878 0.016-1.311 0.038h-0.103c-2.587 0.142-5.154 0.536-7.666 1.177-3.18 0.796-6.249 1.992-9.132 3.559v-34.95c2.995-1.747 6.22-3.058 9.58-3.897 2.95-0.762 5.983-1.153 9.029-1.164h0.526c0.629 0.016 1.242 0.044 1.818 0.088 1.518 0.107 3.023 0.346 4.499 0.717v3.524c-1.434-0.334-2.891-0.554-4.359-0.657-0.030-0.002-0.060-0.005-0.089-0.008-0.304-0.026-0.608-0.052-0.891-0.052zM34.65 7.214c0.781 0.059 1.591 0.088 2.41 0.088 3.202-0.012 6.391-0.421 9.493-1.218 3.179-0.799 6.246-1.996 9.129-3.562v34.327c-2.996 1.746-6.222 3.057-9.583 3.897-2.951 0.759-5.983 1.149-9.029 1.161-2.308 0.019-4.609-0.253-6.85-0.807v-34.549c0.529 0.122 1.074 0.235 1.628 0.329 0.909 0.153 1.868 0.266 2.802 0.335zM52.12 7.48l-1.245 0.419c-1.146 0.385-2.301 0.729-3.462 1.036-3.381 0.869-6.856 1.315-10.346 1.327-0.813 0-1.56-0.022-2.282-0.069l-0.993-0.066v28.033l0.853 0.075c0.791 0.069 1.607 0.103 2.429 0.103 2.749-0.012 5.486-0.366 8.148-1.055 2.192-0.55 4.325-1.316 6.367-2.288l0.532-0.257v-27.26z"></path>
<path fill="#afb1b8" style="fill: var(--color1, #afb1b8)" d="M10.753 51.954c-0.179-0.186-0.395-0.332-0.634-0.428s-0.495-0.142-0.752-0.132c-0.274-0.004-0.546 0.047-0.8 0.15-0.233 0.093-0.445 0.232-0.623 0.41-0.176 0.178-0.313 0.391-0.402 0.626-0.098 0.246-0.146 0.508-0.143 0.773v4.67c-0.011 0.329 0.052 0.656 0.184 0.958 0.11 0.239 0.269 0.453 0.467 0.626 0.187 0.157 0.406 0.27 0.641 0.332 0.227 0.064 0.462 0.096 0.697 0.097 0.26 0.003 0.517-0.053 0.754-0.163 0.233-0.102 0.445-0.249 0.623-0.432 0.173-0.181 0.312-0.394 0.408-0.626 0.1-0.235 0.151-0.489 0.149-0.745v-0.523h-1.22v0.416c0.004 0.142-0.021 0.284-0.072 0.416-0.040 0.099-0.1 0.189-0.178 0.263-0.076 0.061-0.162 0.107-0.255 0.135-0.082 0.027-0.168 0.042-0.255 0.044-0.109 0.013-0.219-0.004-0.32-0.048s-0.188-0.114-0.253-0.203c-0.115-0.188-0.171-0.406-0.162-0.626v-4.354c-0.008-0.241 0.044-0.481 0.149-0.698 0.063-0.099 0.153-0.177 0.259-0.227s0.223-0.069 0.339-0.055c0.105-0.004 0.21 0.018 0.305 0.064s0.177 0.114 0.24 0.199c0.137 0.179 0.208 0.4 0.202 0.626v0.404h1.208v-0.476c0.002-0.279-0.048-0.557-0.149-0.817-0.090-0.245-0.229-0.468-0.408-0.657z"></path>
<path fill="#afb1b8" style="fill: var(--color1, #afb1b8)" d="M18.005 51.9c-0.389-0.329-0.88-0.51-1.389-0.513-0.249 0.001-0.495 0.046-0.729 0.131-0.237 0.085-0.456 0.215-0.645 0.382-0.202 0.182-0.364 0.405-0.473 0.654-0.123 0.285-0.184 0.594-0.177 0.904v4.479c-0.008 0.315 0.052 0.628 0.177 0.917 0.11 0.241 0.272 0.454 0.473 0.626 0.187 0.173 0.406 0.307 0.645 0.394 0.233 0.086 0.48 0.13 0.729 0.131 0.249-0.001 0.495-0.045 0.729-0.131 0.243-0.088 0.467-0.222 0.66-0.394 0.195-0.175 0.352-0.388 0.461-0.626 0.125-0.289 0.186-0.602 0.177-0.917v-4.479c0.006-0.311-0.055-0.619-0.177-0.904-0.109-0.247-0.265-0.469-0.461-0.654zM17.435 57.938c0.010 0.119-0.006 0.239-0.048 0.352s-0.109 0.213-0.195 0.296c-0.161 0.135-0.364 0.209-0.574 0.209s-0.413-0.074-0.574-0.209c-0.086-0.083-0.153-0.184-0.195-0.296s-0.059-0.232-0.048-0.352v-4.479c-0.010-0.119 0.006-0.239 0.048-0.352s0.109-0.213 0.195-0.296c0.161-0.135 0.364-0.209 0.574-0.209s0.413 0.074 0.574 0.209c0.086 0.083 0.153 0.184 0.195 0.296s0.058 0.232 0.048 0.352v4.479z"></path>
<path fill="#afb1b8" style="fill: var(--color1, #afb1b8)" d="M27.529 59.938v-8.478h-1.174l-1.541 4.488h-0.022l-1.554-4.488h-1.161v8.478h1.211v-5.158h0.022l1.186 3.646h0.604l1.196-3.646h0.022v5.158h1.211z"></path>
<path fill="#afb1b8" style="fill: var(--color1, #afb1b8)" d="M34.41 52.054c-0.187-0.209-0.422-0.368-0.685-0.463-0.283-0.092-0.58-0.137-0.878-0.131h-1.8v8.478h1.208v-3.311h0.623c0.377 0.017 0.752-0.063 1.090-0.232 0.275-0.153 0.504-0.376 0.663-0.648 0.14-0.225 0.234-0.477 0.277-0.739 0.047-0.319 0.069-0.642 0.065-0.964 0.012-0.407-0.028-0.814-0.118-1.211-0.081-0.293-0.234-0.562-0.445-0.779zM33.787 54.639c-0.005 0.154-0.043 0.304-0.112 0.441-0.069 0.13-0.178 0.235-0.311 0.297-0.179 0.080-0.374 0.117-0.57 0.106h-0.551v-2.882h0.623c0.188-0.009 0.374 0.027 0.545 0.106 0.125 0.072 0.224 0.181 0.283 0.313 0.066 0.149 0.102 0.31 0.106 0.473 0 0.178 0 0.366 0 0.563s0.012 0.401 0 0.582h-0.012z"></path>
<path fill="#afb1b8" style="fill: var(--color1, #afb1b8)" d="M40.133 51.459h-0.99l-1.868 8.478h1.208l0.355-1.822h1.647l0.355 1.822h1.208l-1.915-8.478zM39.018 56.961l0.595-3.073h0.022l0.592 3.073h-1.208z"></path>
<path fill="#afb1b8" style="fill: var(--color1, #afb1b8)" d="M47.938 56.567h-0.022l-1.825-5.108h-1.161v8.478h1.208v-5.098h0.025l1.846 5.098h1.136v-8.478h-1.208v5.108z"></path>
<path fill="#afb1b8" style="fill: var(--color1, #afb1b8)" d="M55.32 51.459l-0.971 3.371h-0.025l-0.971-3.371h-1.28l1.659 4.895v3.584h1.208v-3.584l1.659-4.895h-1.28z"></path>
<path fill="#afb1b8" style="fill: var(--color1, #afb1b8)" d="M7.385 62.332h0.582v1.634h0.395v-1.634h0.579v-0.335h-1.557v0.335z"></path>
<path fill="#afb1b8" style="fill: var(--color1, #afb1b8)" d="M12.279 61.997l-0.763 1.969h0.42l0.162-0.447h0.785l0.168 0.447h0.43l-0.781-1.969h-0.42zM12.217 63.186l0.268-0.729 0.268 0.729h-0.536z"></path>
<path fill="#afb1b8" style="fill: var(--color1, #afb1b8)" d="M17.117 63.239h0.455v0.254c-0.133 0.106-0.297 0.165-0.467 0.166-0.079 0.004-0.159-0.010-0.231-0.043s-0.136-0.082-0.186-0.145c-0.104-0.15-0.156-0.331-0.146-0.513 0-0.438 0.19-0.657 0.567-0.657 0.099-0.010 0.199 0.016 0.28 0.074s0.14 0.142 0.165 0.239l0.389-0.075c-0.084-0.385-0.361-0.579-0.834-0.579-0.253-0.007-0.499 0.084-0.688 0.254-0.099 0.098-0.176 0.216-0.225 0.347s-0.069 0.271-0.058 0.41c-0.012 0.269 0.079 0.533 0.252 0.739 0.096 0.099 0.213 0.177 0.342 0.226s0.267 0.071 0.405 0.062c0.308 0.009 0.607-0.104 0.834-0.313v-0.776h-0.853v0.332z"></path>
<path fill="#afb1b8" style="fill: var(--color1, #afb1b8)" d="M22.059 61.997h-0.398v1.969h1.379v-0.335h-0.981v-1.634z"></path>
<path fill="#afb1b8" style="fill: var(--color1, #afb1b8)" d="M26.237 61.997h-0.398v1.969h0.398v-1.969z"></path>
<path fill="#afb1b8" style="fill: var(--color1, #afb1b8)" d="M30.322 63.311l-0.806-1.315h-0.386v1.969h0.37v-1.286l0.791 1.286h0.395v-1.969h-0.364v1.315z"></path>
<path fill="#afb1b8" style="fill: var(--color1, #afb1b8)" d="M34.014 63.098h0.981v-0.335h-0.981v-0.432h1.056v-0.335h-1.454v1.969h1.495v-0.335h-1.096v-0.532z"></path>
<path fill="#afb1b8" style="fill: var(--color1, #afb1b8)" d="M42.969 62.773h-0.775v-0.776h-0.395v1.969h0.395v-0.861h0.775v0.861h0.395v-1.969h-0.395v0.776z"></path>
<path fill="#afb1b8" style="fill: var(--color1, #afb1b8)" d="M46.683 63.098h0.984v-0.335h-0.984v-0.432h1.059v-0.335h-1.454v1.969h1.491v-0.335h-1.096v-0.532z"></path>
<path fill="#afb1b8" style="fill: var(--color1, #afb1b8)" d="M51.721 63.099c0.342-0.053 0.517-0.235 0.517-0.548 0.010-0.084-0.003-0.169-0.037-0.246s-0.088-0.144-0.156-0.193c-0.178-0.090-0.377-0.13-0.576-0.116h-0.834v1.969h0.395v-0.823h0.078c0.084-0.005 0.169 0.010 0.246 0.044 0.058 0.036 0.106 0.085 0.14 0.144l0.43 0.626h0.473l-0.24-0.385c-0.106-0.19-0.255-0.352-0.436-0.473zM51.322 62.826h-0.293v-0.495h0.311c0.136-0.011 0.272 0.005 0.402 0.047 0.029 0.026 0.051 0.057 0.066 0.093s0.022 0.074 0.020 0.112c-0.002 0.038-0.012 0.076-0.030 0.11s-0.044 0.063-0.075 0.086c-0.13 0.040-0.266 0.056-0.402 0.047z"></path>
<path fill="#afb1b8" style="fill: var(--color1, #afb1b8)" d="M55.52 63.098h0.981v-0.335h-0.981v-0.432h1.059v-0.335h-1.457v1.969h1.494v-0.335h-1.096v-0.532z"></path>
</symbol>
<symbol id="icon-yaco" viewBox="0 0 64 64">
<path fill="#afb1b8" style="fill: var(--color1, #afb1b8)" d="M12.255 0l9.543 9.034-17.713-0.010v43.829h46.298v-16.758l9.532 9.024v-45.118h-47.66zM49.964 35.034l-27.057-25.614h27.057v25.614zM41.563 46.442h-30.152v-29.478h2.131v27.482h28.021v1.996zM18.531 58.688l-1.114 2.294-1.114-2.294h-0.934l1.626 3.059v1.782h0.844v-1.782l1.622-3.059h-0.931zM19.931 63.529l0.392-1.127h1.875l0.396 1.127h0.878l-1.832-4.84h-0.755l-1.829 4.84h0.874zM21.261 59.715l0.701 2.008h-1.403l0.702-2.008zM25.695 61.607c-0.122 0.186-0.183 0.391-0.183 0.615 0 0.408 0.143 0.739 0.429 0.994 0.288 0.253 0.671 0.379 1.15 0.379s0.891-0.13 1.237-0.389l0.273 0.322h0.938l-0.712-0.841c0.279-0.381 0.419-0.87 0.419-1.466h-0.701c0 0.326-0.068 0.622-0.203 0.888l-0.934-1.104 0.329-0.239c0.233-0.168 0.4-0.337 0.502-0.505 0.102-0.171 0.153-0.357 0.153-0.558 0-0.306-0.113-0.562-0.339-0.768-0.224-0.208-0.512-0.313-0.864-0.313-0.39 0-0.7 0.111-0.931 0.332-0.231 0.219-0.346 0.519-0.346 0.898 0 0.155 0.037 0.316 0.11 0.482 0.075 0.166 0.207 0.368 0.396 0.605-0.359 0.257-0.6 0.48-0.721 0.668zM27.88 62.678c-0.237 0.182-0.492 0.273-0.765 0.273-0.242 0-0.434-0.070-0.578-0.209s-0.216-0.321-0.216-0.545c0-0.259 0.133-0.49 0.399-0.691l0.103-0.073 1.057 1.247zM27.012 60.533c-0.228-0.281-0.342-0.515-0.342-0.701 0-0.162 0.047-0.296 0.14-0.402s0.218-0.16 0.376-0.16c0.146 0 0.267 0.045 0.362 0.136 0.095 0.089 0.143 0.196 0.143 0.322 0 0.191-0.069 0.347-0.206 0.469l-0.103 0.083-0.369 0.253zM34.891 63.163c0.333-0.29 0.523-0.694 0.572-1.21h-0.838c-0.044 0.346-0.15 0.593-0.316 0.741s-0.414 0.223-0.745 0.223c-0.361 0-0.636-0.137-0.824-0.412-0.186-0.275-0.279-0.674-0.279-1.197v-0.429c0.004-0.516 0.104-0.908 0.299-1.173 0.197-0.268 0.479-0.402 0.844-0.402 0.315 0 0.553 0.078 0.715 0.233 0.164 0.153 0.266 0.403 0.306 0.751h0.838c-0.053-0.53-0.243-0.94-0.569-1.23s-0.756-0.435-1.29-0.435c-0.397 0-0.747 0.094-1.051 0.283-0.301 0.188-0.533 0.457-0.695 0.804s-0.243 0.75-0.243 1.207v0.452c0.007 0.445 0.090 0.837 0.249 1.173s0.386 0.597 0.678 0.781c0.295 0.182 0.635 0.273 1.021 0.273 0.552 0 0.994-0.144 1.326-0.432zM39.834 62.485c0.164-0.359 0.246-0.776 0.246-1.25v-0.269c-0.002-0.472-0.086-0.885-0.253-1.24-0.166-0.357-0.402-0.629-0.708-0.818-0.304-0.191-0.653-0.286-1.047-0.286s-0.745 0.096-1.051 0.289c-0.304 0.191-0.54 0.467-0.708 0.828-0.166 0.361-0.249 0.778-0.249 1.25v0.273c0.002 0.463 0.086 0.872 0.253 1.227 0.168 0.355 0.406 0.628 0.712 0.821 0.308 0.191 0.658 0.286 1.051 0.286 0.397 0 0.747-0.095 1.050-0.286 0.306-0.193 0.541-0.468 0.705-0.825zM38.934 59.749c0.204 0.286 0.306 0.697 0.306 1.233v0.253c0 0.545-0.101 0.96-0.303 1.243-0.199 0.284-0.485 0.426-0.858 0.426-0.368 0-0.656-0.145-0.864-0.435-0.206-0.29-0.309-0.701-0.309-1.233v-0.279c0.005-0.521 0.109-0.923 0.313-1.207 0.206-0.286 0.491-0.429 0.854-0.429 0.372 0 0.659 0.143 0.861 0.429z"></path>
</symbol>
<symbol id="icon-instagram" viewBox="0 0 64 64">
<path fill="#afb1b8" style="fill: var(--color1, #afb1b8)" d="M63.937 18.816c-0.15-3.401-0.7-5.738-1.487-7.764-0.813-2.15-2.063-4.075-3.701-5.676-1.6-1.625-3.538-2.888-5.664-3.688-2.037-0.788-4.363-1.338-7.764-1.488-3.426-0.163-4.514-0.2-13.203-0.2s-9.777 0.038-13.19 0.188c-3.401 0.15-5.738 0.7-7.764 1.488-2.151 0.813-4.076 2.063-5.676 3.701-1.625 1.6-2.888 3.538-3.688 5.664-0.788 2.038-1.338 4.363-1.488 7.764-0.163 3.426-0.2 4.514-0.2 13.203s0.038 9.777 0.188 13.19c0.15 3.4 0.7 5.738 1.488 7.764 0.813 2.15 2.075 4.075 3.7 5.676 1.6 1.625 3.538 2.888 5.664 3.688 2.038 0.788 4.363 1.338 7.764 1.487 3.413 0.15 4.501 0.188 13.19 0.188s9.777-0.037 13.19-0.188c3.401-0.15 5.738-0.7 7.764-1.487 4.301-1.663 7.702-5.064 9.365-9.364 0.787-2.038 1.338-4.364 1.488-7.764 0.15-3.413 0.188-4.501 0.188-13.19s-0.013-9.777-0.163-13.19zM58.174 44.946c-0.138 3.126-0.663 4.813-1.1 5.939-1.075 2.788-3.288 5.001-6.077 6.077-1.125 0.438-2.825 0.963-5.939 1.1-3.376 0.15-4.388 0.188-12.927 0.188s-9.564-0.037-12.928-0.188c-3.126-0.137-4.813-0.662-5.939-1.1-1.387-0.513-2.65-1.325-3.675-2.388-1.063-1.038-1.875-2.288-2.388-3.675-0.438-1.125-0.963-2.826-1.1-5.939-0.15-3.376-0.188-4.389-0.188-12.928s0.037-9.564 0.188-12.927c0.137-3.126 0.662-4.813 1.1-5.939 0.513-1.388 1.325-2.65 2.401-3.676 1.037-1.063 2.288-1.875 3.675-2.388 1.125-0.438 2.826-0.963 5.939-1.1 3.376-0.15 4.389-0.188 12.927-0.188 8.552 0 9.564 0.038 12.928 0.188 3.126 0.138 4.813 0.663 5.939 1.1 1.387 0.512 2.65 1.325 3.675 2.388 1.062 1.038 1.875 2.288 2.388 3.676 0.437 1.125 0.963 2.825 1.1 5.939 0.15 3.376 0.188 4.388 0.188 12.927s-0.037 9.54-0.188 12.915z"></path>
<path fill="#afb1b8" style="fill: var(--color1, #afb1b8)" d="M32.119 15.565c-9.077 0-16.441 7.364-16.441 16.441s7.364 16.441 16.441 16.441c9.077 0 16.441-7.364 16.441-16.441s-7.364-16.441-16.441-16.441zM32.119 42.671c-5.888 0-10.665-4.776-10.665-10.665s4.776-10.665 10.665-10.665c5.889 0 10.665 4.776 10.665 10.665s-4.776 10.665-10.665 10.665z"></path>
<path fill="#afb1b8" style="fill: var(--color1, #afb1b8)" d="M53.048 14.915c0 2.12-1.718 3.838-3.838 3.838s-3.838-1.719-3.838-3.838c0-2.12 1.719-3.838 3.838-3.838s3.838 1.718 3.838 3.838z"></path>
</symbol>
<symbol id="icon-linkedin" viewBox="0 0 64 64">
<path fill="#afb1b8" style="fill: var(--color1, #afb1b8)" d="M63.984 64v-0.003h0.016v-23.472c0-11.483-2.472-20.328-15.896-20.328-6.453 0-10.784 3.541-12.552 6.899h-0.187v-5.827h-12.728v42.728h13.253v-21.157c0-5.571 1.056-10.957 7.955-10.957 6.797 0 6.899 6.357 6.899 11.315v20.803h13.24z"></path>
<path fill="#afb1b8" style="fill: var(--color1, #afb1b8)" d="M1.056 21.272h13.269v42.728h-13.269v-42.728z"></path>
<path fill="#afb1b8" style="fill: var(--color1, #afb1b8)" d="M7.685 0c-4.243 0-7.685 3.443-7.685 7.685s3.443 7.757 7.685 7.757c4.243 0 7.685-3.515 7.685-7.757-0.003-4.243-3.445-7.685-7.685-7.685v0z"></path>
</symbol>
<symbol id="icon-facebook" viewBox="0 0 64 64">
<path fill="#afb1b8" style="fill: var(--color1, #afb1b8)" d="M42.659 10.627h5.843v-10.176c-1.008-0.139-4.475-0.451-8.512-0.451-8.424 0-14.195 5.299-14.195 15.037v8.963h-9.296v11.376h9.296v28.624h11.398v-28.621h8.92l1.416-11.376h-10.339v-7.837c0.003-3.288 0.888-5.539 5.469-5.539z"></path>
</symbol>
<symbol id="icon-twitter" viewBox="0 0 64 64">
<path fill="#afb1b8" style="fill: var(--color1, #afb1b8)" d="M64 12.156c-2.38 1.044-4.916 1.736-7.56 2.072 2.72-1.624 4.796-4.176 5.772-7.252-2.536 1.512-5.336 2.58-8.32 3.176-2.408-2.564-5.84-4.152-9.584-4.152-7.264 0-13.112 5.896-13.112 13.124 0 1.040 0.088 2.040 0.304 2.992-10.908-0.532-20.56-5.76-27.044-13.724-1.132 1.964-1.796 4.212-1.796 6.632 0 4.544 2.34 8.572 5.828 10.904-2.108-0.040-4.176-0.652-5.928-1.616 0 0.040 0 0.092 0 0.144 0 6.376 4.548 11.672 10.512 12.892-1.068 0.292-2.232 0.432-3.44 0.432-0.84 0-1.688-0.048-2.484-0.224 1.7 5.196 6.524 9.016 12.26 9.14-4.464 3.492-10.132 5.596-16.268 5.596-1.076 0-2.108-0.048-3.14-0.18 5.812 3.748 12.7 5.888 20.128 5.888 24.144 0 37.344-20 37.344-37.336 0-0.58-0.020-1.14-0.048-1.696 2.604-1.848 4.792-4.156 6.576-6.812z"></path>
</symbol>
<symbol id="icon-astronaut" viewBox="0 0 64 64">
<path fill="#2196f3" style="fill: var(--color2, #2196f3)" d="M63.948 9.048c-0.126-0.385-0.459-0.667-0.861-0.725l-3.821-0.556-1.71-3.462c-0.358-0.73-1.554-0.73-1.913 0l-1.71 3.462-3.821 0.556c-0.402 0.059-0.735 0.339-0.862 0.725-0.125 0.386-0.021 0.811 0.27 1.093l2.766 2.696-0.653 3.806c-0.068 0.4 0.096 0.804 0.423 1.043 0.332 0.241 0.765 0.271 1.124 0.081l3.418-1.797 3.418 1.797c0.156 0.082 0.328 0.123 0.497 0.123 0.221 0 0.442-0.068 0.627-0.204 0.328-0.239 0.493-0.643 0.423-1.043l-0.653-3.806 2.766-2.695c0.29-0.284 0.394-0.707 0.27-1.093zM59.022 11.702c-0.251 0.244-0.366 0.598-0.306 0.944l0.382 2.228-2.001-1.052c-0.156-0.082-0.326-0.123-0.497-0.123s-0.34 0.040-0.497 0.123l-2.001 1.052 0.382-2.228c0.060-0.346-0.056-0.699-0.306-0.944l-1.62-1.579 2.238-0.325c0.348-0.050 0.648-0.269 0.803-0.584l1.001-2.027 1.001 2.027c0.156 0.315 0.456 0.533 0.803 0.584l2.238 0.325-1.618 1.579z"></path>
<path fill="#2196f3" style="fill: var(--color2, #2196f3)" d="M52.267 41.044h-2.133v2.133h2.133v-2.133z"></path>
<path fill="#2196f3" style="fill: var(--color2, #2196f3)" d="M52.267 45.311h-2.133v2.133h2.133v-2.133z"></path>
<path fill="#2196f3" style="fill: var(--color2, #2196f3)" d="M54.4 43.178h-2.133v2.133h2.133v-2.133z"></path>
<path fill="#2196f3" style="fill: var(--color2, #2196f3)" d="M50.134 43.178h-2.133v2.133h2.133v-2.133z"></path>
<path fill="#2196f3" style="fill: var(--color2, #2196f3)" d="M44.8 52.778h-2.133v2.133h2.133v-2.133z"></path>
<path fill="#2196f3" style="fill: var(--color2, #2196f3)" d="M44.8 57.045h-2.133v2.133h2.133v-2.133z"></path>
<path fill="#2196f3" style="fill: var(--color2, #2196f3)" d="M46.934 54.911h-2.133v2.133h2.133v-2.133z"></path>
<path fill="#2196f3" style="fill: var(--color2, #2196f3)" d="M42.667 54.911h-2.133v2.133h2.133v-2.133z"></path>
<path fill="#2196f3" style="fill: var(--color2, #2196f3)" d="M32 48.511h-2.133v2.133h2.133v-2.133z"></path>
<path fill="#2196f3" style="fill: var(--color2, #2196f3)" d="M32 52.778h-2.133v2.133h2.133v-2.133z"></path>
<path fill="#2196f3" style="fill: var(--color2, #2196f3)" d="M34.133 50.645h-2.133v2.133h2.133v-2.133z"></path>
<path fill="#2196f3" style="fill: var(--color2, #2196f3)" d="M29.867 50.645h-2.133v2.133h2.133v-2.133z"></path>
<path fill="#2196f3" style="fill: var(--color2, #2196f3)" d="M11.733 12.244h-2.133v2.133h2.133v-2.133z"></path>
<path fill="#2196f3" style="fill: var(--color2, #2196f3)" d="M11.733 16.511h-2.133v2.133h2.133v-2.133z"></path>
<path fill="#2196f3" style="fill: var(--color2, #2196f3)" d="M13.866 14.377h-2.133v2.133h2.133v-2.133z"></path>
<path fill="#2196f3" style="fill: var(--color2, #2196f3)" d="M9.6 14.377h-2.133v2.133h2.133v-2.133z"></path>
<path fill="#212121" style="fill: var(--color3, #212121)" d="M49.429 28.319c-0.575-0.776-1.419-1.275-2.377-1.409-0.962-0.137-1.911 0.116-2.679 0.704l-2.505 1.92-3.795 2.834-2.716-1.082c4.843-2.173 8.227-7.017 8.227-12.64 0-7.646-6.245-13.867-13.922-13.867s-13.922 6.221-13.922 13.867c0 2.771 0.829 5.348 2.24 7.517l-5.528-0.048c-0.003 0-0.006 0-0.010 0-0.017 0-0.031 0.009-0.047 0.010-0.106 0.004-0.209 0.026-0.31 0.062-0.026 0.010-0.052 0.015-0.077 0.027-0.013 0.005-0.026 0.006-0.038 0.013l-6.466 3.192c-0.001 0-0.002 0-0.002 0.001l-3.787 1.821c-0.042 0.018-0.084 0.043-0.126 0.070-1.509 1.005-2.023 2.978-1.197 4.591 0.441 0.858 1.19 1.489 2.112 1.778 0.355 0.111 0.718 0.165 1.078 0.165 0.579 0 1.153-0.142 1.679-0.422l2.776-1.476 4.528-2.338 2.714-0.016-10.883 10.831c-0.001 0.001-0.002 0.001-0.003 0.002l-2.677 2.667c-0.632 0.629-0.98 1.465-0.98 2.355 0 0.89 0.348 1.727 0.98 2.357 0.65 0.646 1.504 0.971 2.358 0.971 0.856 0 1.709-0.324 2.361-0.971l2.628-2.618 3.482-2.599 1.802 1.794-3.523 3.508c-0.001 0.001-0.002 0.001-0.003 0.002l-2.677 2.667c-0.633 0.629-0.98 1.465-0.98 2.355 0 0.89 0.348 1.727 0.98 2.357 0.65 0.646 1.505 0.971 2.36 0.971s1.71-0.324 2.361-0.971l6.963-6.933c0.001-0.001 0.001-0.002 0.002-0.003l2.019-2-0.008-0.008c0.013-0.013 0.031-0.017 0.044-0.031l10.332-11.316 6.942 0.988c0.050 0.008 0.1 0.011 0.15 0.011 0.129 0 0.254-0.031 0.374-0.077 0.035-0.013 0.066-0.030 0.099-0.047 0.038-0.019 0.079-0.030 0.115-0.054l6.427-4.267c0.023-0.016 0.036-0.042 0.059-0.059 0.026-0.020 0.058-0.029 0.081-0.051l2.543-2.382c1.323-1.24 1.506-3.271 0.424-4.724zM4.261 35.54c-0.347 0.186-0.74 0.223-1.117 0.103-0.373-0.116-0.676-0.371-0.853-0.716-0.322-0.627-0.135-1.391 0.429-1.804l2.627-1.264 0.898 2.625-1.984 1.055zM11.255 31.885l-3.097 1.6-0.878-2.567 4.054-2.001-0.079 2.968zM41.454 18.644c0 1.837-0.438 3.569-1.198 5.119l-8.363-3.798c-0.087-1.147-0.683-2.15-1.576-2.776l2.928-9.721c4.755 1.513 8.209 5.949 8.209 11.176zM17.876 18.644c0-6.47 5.289-11.734 11.789-11.734 0.506 0 1 0.043 1.49 0.104l-2.864 9.507c-0.038-0.001-0.075-0.012-0.114-0.012-2.065 0-3.745 1.675-3.745 3.733s1.68 3.733 3.745 3.733c1.389 0 2.589-0.767 3.236-1.889l7.725 3.509c-2.149 2.893-5.59 4.78-9.473 4.78-6.5 0-11.789-5.264-11.789-11.734zM29.789 20.244c0 0.882-0.723 1.6-1.612 1.6s-1.612-0.718-1.612-1.6c0-0.882 0.723-1.6 1.612-1.6s1.612 0.718 1.612 1.6zM4.93 50.292c-0.473 0.468-1.237 0.467-1.709 0.001-0.227-0.227-0.352-0.527-0.352-0.846 0-0.318 0.125-0.618 0.352-0.843l1.924-1.917 1.702 1.695-1.918 1.909zM11.357 57.759c-0.473 0.468-1.238 0.469-1.71 0.001-0.227-0.227-0.352-0.527-0.352-0.846 0-0.318 0.125-0.618 0.352-0.843l1.925-1.918 1.704 1.695-1.919 1.91zM18.321 50.822c-0.001 0.001-0.002 0.001-0.003 0.002l-3.53 3.52-1.704-1.695 3.526-3.51c0 0 0 0 0-0.001 0.001-0.001 0.002-0.001 0.003-0.002 0.080-0.080 0.13-0.176 0.179-0.271 0.014-0.028 0.041-0.051 0.052-0.080 0.033-0.082 0.038-0.171 0.051-0.257 0.006-0.049 0.028-0.095 0.028-0.145 0-0.072-0.026-0.141-0.041-0.211-0.013-0.064-0.013-0.129-0.037-0.191-0.041-0.1-0.11-0.189-0.182-0.275-0.020-0.023-0.028-0.053-0.050-0.076 0 0 0 0-0.001 0s-0.001-0.003-0.002-0.004l-3.214-3.2c-0.034-0.034-0.078-0.048-0.116-0.077-0.056-0.044-0.111-0.084-0.174-0.115-0.061-0.030-0.123-0.048-0.187-0.065-0.068-0.019-0.134-0.034-0.206-0.039-0.065-0.004-0.126 0.002-0.191 0.010-0.072 0.008-0.139 0.018-0.208 0.041-0.067 0.021-0.127 0.054-0.189 0.090-0.040 0.022-0.084 0.030-0.122 0.058l-3.547 2.648-1.802-1.794 4.798-4.772 8.721 8.577-1.855 1.838zM31.958 36.788c-0.031-0.004-0.060 0.008-0.091 0.005-0.078-0.004-0.152 0.001-0.23 0.014-0.061 0.011-0.118 0.022-0.176 0.043-0.068 0.023-0.13 0.056-0.193 0.094-0.060 0.036-0.114 0.075-0.166 0.123-0.026 0.022-0.056 0.033-0.080 0.059l-9.397 10.291-8.656-8.513 5.666-5.636c0.417-0.416 0.419-1.091 0.003-1.509-0.21-0.21-0.486-0.314-0.763-0.313v-0.001l-4.437 0.027 0.056-3.215 6.208 0.053c2.53 2.588 6.059 4.202 9.963 4.202 0.875 0 1.728-0.091 2.559-0.245 0.080 0.064 0.159 0.129 0.259 0.17l4.819 1.92 0.661 3.287-6.005-0.854zM40.041 37.145l-0.626-3.116 2.893-2.16 1.893 2.513-4.16 2.763zM47.548 31.483l-1.676 1.57-1.862-2.473 1.663-1.275c0.31-0.239 0.702-0.336 1.086-0.286 0.386 0.054 0.727 0.256 0.96 0.569 0.433 0.584 0.359 1.397-0.171 1.894z"></path>
<path fill="#212121" style="fill: var(--color3, #212121)" d="M27.204 37.088l-4.286-4.267c-0.415-0.415-1.089-0.415-1.505 0l-4.285 4.267c-0.201 0.202-0.314 0.472-0.314 0.756s0.112 0.556 0.314 0.756l4.285 4.267c0.208 0.207 0.481 0.31 0.753 0.31s0.545-0.103 0.752-0.31l4.286-4.267c0.201-0.2 0.315-0.472 0.315-0.756s-0.113-0.556-0.315-0.756zM22.166 40.606l-2.773-2.762 2.773-2.762 2.774 2.762-2.774 2.762z"></path>
<path fill="#212121" style="fill: var(--color3, #212121)" d="M34.328 10.142l-0.515 2.072c0.142 0.035 3.475 0.903 3.475 4.298h2.133c-0-4.034-3.331-5.931-5.093-6.369z"></path>
<path fill="#212121" style="fill: var(--color3, #212121)" d="M39.422 18.644h-2.133v2.133h2.133v-2.133z"></path>
</symbol>
<symbol id="icon-clock" viewBox="0 0 64 64">
<path fill="#212121" style="fill: var(--color3, #212121)" d="M62.593 30.602c-0.004-16.905-13.71-30.606-30.616-30.602s-30.606 13.711-30.602 30.616c0.003 13.316 8.614 25.102 21.299 29.152 0.121 0.038 0.247 0.058 0.374 0.057 0.241-0 0.478-0.065 0.685-0.188 0.27-0.16 0.472-0.414 0.566-0.713l7.73-24.5c2.113-0.011 3.817-1.733 3.806-3.846s-1.732-3.817-3.846-3.807c-0.568 0.002-1.129 0.133-1.64 0.383l-10.212-10.213c-0.507-0.489-1.314-0.475-1.803 0.031-0.478 0.495-0.478 1.278 0 1.772l10.207 10.218c-0.783 1.599-0.335 3.528 1.073 4.618l-7.365 23.346c-14.556-5.362-22.009-21.508-16.647-36.063s21.508-22.009 36.063-16.647 22.009 21.508 16.647 36.063c-2.62 7.111-8.002 12.862-14.924 15.947l-0.796-3.749c-0.145-0.689-0.823-1.129-1.512-0.983-0.217 0.046-0.419 0.148-0.585 0.296l-7.674 6.851c-0.526 0.468-0.573 1.274-0.105 1.801 0.152 0.171 0.348 0.298 0.566 0.368l9.797 3.127c0.67 0.215 1.389-0.153 1.604-0.824 0.068-0.212 0.080-0.438 0.034-0.655l-0.782-3.678c11.329-4.776 18.684-15.884 18.658-28.178v0zM31.984 29.327c0.704 0 1.275 0.571 1.275 1.275s-0.571 1.275-1.275 1.275c-0.705 0-1.275-0.571-1.275-1.275s0.571-1.275 1.275-1.275zM36.185 59.055l4.368-3.897 1.206 5.681-5.574-1.784z"></path>
<path fill="#2196f3" style="fill: var(--color2, #2196f3)" d="M30.709 6.37v2.551c0 0.705 0.571 1.275 1.275 1.275s1.275-0.571 1.275-1.275v-2.551c0-0.704-0.571-1.275-1.275-1.275s-1.275 0.571-1.275 1.275z"></path>
<path fill="#2196f3" style="fill: var(--color2, #2196f3)" d="M7.752 29.327c-0.705 0-1.275 0.571-1.275 1.275s0.571 1.275 1.275 1.275h2.551c0.705 0 1.275-0.571 1.275-1.275s-0.571-1.275-1.275-1.275h-2.551z"></path>
<path fill="#2196f3" style="fill: var(--color2, #2196f3)" d="M56.216 31.878c0.705 0 1.275-0.571 1.275-1.275s-0.571-1.275-1.275-1.275h-2.551c-0.704 0-1.275 0.571-1.275 1.275s0.571 1.275 1.275 1.275h2.551z"></path>
</symbol>
<symbol id="icon-diagram" viewBox="0 0 64 64">
<path fill="#2196f3" style="fill: var(--color2, #2196f3)" d="M29.851 29.929h2.132v9.595h-2.132v-9.595z"></path>
<path fill="#2196f3" style="fill: var(--color2, #2196f3)" d="M38.38 34.194h2.132v5.331h-2.132v-5.331z"></path>
<path fill="#2196f3" style="fill: var(--color2, #2196f3)" d="M21.322 37.392h2.132v2.132h-2.132v-2.132z"></path>
<path fill="#2196f3" style="fill: var(--color2, #2196f3)" d="M14.926 36.326h2.132v3.198h-2.132v-3.198z"></path>
<path fill="#212121" style="fill: var(--color3, #212121)" d="M3.198 56.582h51.173c1.766 0 3.198-1.432 3.198-3.198v-4.264c0-1.766-1.432-3.198-3.198-3.198h-1.066v-26.587l6.056-5.737c1.406 0.693 3.107 0.272 4.026-0.997s0.791-3.017-0.305-4.137-2.84-1.287-4.13-0.396c-1.289 0.892-1.747 2.584-1.085 4.004l-4.563 4.325v-2.46c0-1.766-1.432-3.198-3.198-3.198h-42.644c-1.766 0-3.198 1.432-3.198 3.198v31.983h-1.066c-1.766 0-3.198 1.432-3.198 3.198v4.264c0 1.766 1.432 3.198 3.198 3.198zM60.768 9.673c0.589 0 1.066 0.477 1.066 1.066s-0.477 1.066-1.066 1.066c-0.589 0-1.066-0.477-1.066-1.066s0.477-1.066 1.066-1.066zM6.397 13.938c0-0.589 0.477-1.066 1.066-1.066h42.644c0.589 0 1.066 0.477 1.066 1.066v4.477l-2.132 2.026v-4.371c0-0.589-0.477-1.066-1.066-1.066h-38.38c-0.589 0-1.066 0.477-1.066 1.066v26.653c0 0.589 0.477 1.066 1.066 1.066h38.38c0.589 0 1.066-0.477 1.066-1.066v-19.349l2.132-2.020v24.567h-44.777v-31.983zM15.992 27.797c-1.442-0.004-2.709 0.957-3.093 2.347s0.21 2.865 1.451 3.601c1.24 0.736 2.82 0.551 3.856-0.452l3.706 1.859c0.431 0.215 0.953 0.114 1.273-0.245l7.878-8.863 7.744 5.803c0.415 0.311 0.995 0.278 1.372-0.079l6.73-6.375v16.262h-36.248v-24.52h36.248v5.321l-7.543 7.143-7.809-5.854c-0.444-0.332-1.068-0.27-1.436 0.144l-7.986 8.985-2.985-1.493c0.022-0.128 0.035-0.257 0.041-0.387 0-1.766-1.432-3.198-3.198-3.198zM17.058 30.995c0 0.589-0.477 1.066-1.066 1.066s-1.066-0.477-1.066-1.066c0-0.589 0.477-1.066 1.066-1.066s1.066 0.477 1.066 1.066zM23.454 48.053h10.661v1.066c0 0.589-0.477 1.066-1.066 1.066h-8.529c-0.589 0-1.066-0.477-1.066-1.066v-1.066zM2.132 49.119c0-0.589 0.477-1.066 1.066-1.066h18.124v1.066c0 1.766 1.432 3.198 3.198 3.198h8.529c1.766 0 3.198-1.432 3.198-3.198v-1.066h18.124c0.589 0 1.066 0.477 1.066 1.066v4.264c0 0.589-0.477 1.066-1.066 1.066h-51.173c-0.589 0-1.066-0.477-1.066-1.066v-4.264z"></path>
</symbol>
<symbol id="icon-antenna" viewBox="0 0 64 64">
<path fill="#212121" style="fill: var(--color3, #212121)" d="M61.546 44.195l-16.886-17.010 1.874-9.231c0.484 0.189 0.998 0.287 1.517 0.291h0.013c2.385 0.028 4.34-1.882 4.369-4.267s-1.882-4.34-4.267-4.369c-2.385-0.028-4.34 1.882-4.369 4.266-0.006 0.51 0.078 1.018 0.249 1.498l-9.92 1.211-16.181-16.266c-0.198-0.203-0.47-0.318-0.753-0.32-0.28 0.001-0.548 0.113-0.747 0.31l-3.025 3.008c-0.416 0.417-0.416 1.092 0 1.508l1.628 1.651c-6.306 11.596-4.258 25.956 5.039 35.326 0.085 0.082 0.184 0.148 0.292 0.195-0.067 0.361-0.102 0.727-0.105 1.094v12.373h-12.8c-2.944 0.004-5.33 2.389-5.333 5.333v2.133c0 0.589 0.478 1.067 1.067 1.067h49.067c0.589 0 1.067-0.478 1.067-1.067v-2.133c-0.004-2.944-2.389-5.33-5.333-5.333h-12.8v-5.484c2.005 0.421 4.048 0.635 6.097 0.64 4.916-0.005 9.754-1.231 14.080-3.567l1.636 1.646c0.199 0.203 0.469 0.318 0.753 0.32 0.28-0.001 0.548-0.113 0.747-0.31l3.025-3.008c0.416-0.417 0.416-1.092 0-1.508zM46.56 12.466c0.835-0.831 2.186-0.827 3.017 0.008s0.827 2.186-0.008 3.017c-0.4 0.398-0.941 0.621-1.505 0.621h-0.006c-1.178-0.006-2.128-0.966-2.122-2.144 0.003-0.564 0.229-1.104 0.629-1.502h-0.004zM44.049 19.475l-1.197 5.891-2.351-2.365 3.548-3.526zM42.837 17.672l-3.84 3.818-2.971-2.987 6.811-0.831zM48.008 57.6c1.767 0 3.2 1.433 3.2 3.2v1.067h-46.933v-1.067c0-1.767 1.433-3.2 3.2-3.2h40.533zM33.075 53.333v2.133h-10.667v-2.133h10.667zM22.408 51.2v-8.107c0-2.588 2.393-4.693 5.333-4.693s5.333 2.106 5.333 4.693v8.107h-10.667zM35.208 47.808v-4.715c0-3.764-3.349-6.827-7.467-6.827-2.662-0.041-5.151 1.314-6.562 3.572-8.116-8.548-9.943-21.29-4.557-31.774l37.204 37.417c-5.745 2.922-12.33 3.745-18.618 2.326zM57.786 46.441l-42.114-42.362 1.509-1.504 15.87 15.96c0.007 0 0.012 0.014 0.019 0.019l26.229 26.383-1.514 1.504z"></path>
<path fill="#2196f3" style="fill: var(--color2, #2196f3)" d="M27.751 40.533h-0.010c-1.767-0.003-3.202 1.428-3.205 3.195s1.428 3.202 3.195 3.205h0.010c1.767 0.003 3.202-1.428 3.205-3.195s-1.428-3.202-3.195-3.205zM28.498 44.49c-0.201 0.2-0.473 0.312-0.756 0.31-0.589-0.003-1.064-0.483-1.061-1.072 0.002-0.282 0.115-0.552 0.314-0.751 0.199-0.197 0.467-0.309 0.747-0.31 0.589 0.003 1.064 0.483 1.061 1.072-0.001 0.282-0.114 0.552-0.314 0.751h0.010z"></path>
</symbol>
<symbol id="icon-envelope" viewBox="0 0 64 64">
<path d="M58 8h-52c-3.309 0-6 2.691-6 6v36c0 3.308 2.691 6 6 6h52c3.308 0 6-2.692 6-6v-36c0-3.309-2.692-6-6-6zM58 12c0.272 0 0.53 0.056 0.766 0.155l-26.766 23.199-26.767-23.199c0.236-0.098 0.495-0.155 0.767-0.155h52zM58 52h-52c-1.104 0-2-0.896-2-2v-33.619l26.689 23.131c0.377 0.326 0.844 0.488 1.311 0.488s0.934-0.162 1.311-0.488l26.689-23.131v33.619c0 1.104-0.896 2-2 2z"></path>
</symbol>
<symbol id="icon-phone" viewBox="0 0 64 64">
<path fill="#757575" style="fill: var(--color4, #757575)" d="M46 0h-28c-3.309 0-6 2.691-6 6v52c0 3.309 2.691 6 6 6h28c3.309 0 6-2.691 6-6v-52c0-3.309-2.691-6-6-6zM18 4h28c1.103 0 2 0.896 2 2v42h-32v-42c0-1.104 0.896-2 2-2zM46 60h-28c-1.104 0-2-0.896-2-2v-6h32v6c0 1.104-0.897 2-2 2z"></path>
</symbol>
</defs>
</svg>
